<svg id="Capa_1" enable-background="new 0 0 496.222 496.222" height="512" viewBox="0 0 496.222 496.222" width="512" xmlns="http://www.w3.org/2000/svg"><g><g><path d="m474.644 464.976h-410.888v-102.55h416.193v97.245c0 2.93-2.375 5.305-5.305 5.305z" fill="#62a4fb"/></g><g><path d="m449.949 362.426v97.245c0 2.93-2.375 5.305-5.305 5.305h30c2.93 0 5.305-2.375 5.305-5.305v-97.245z" fill="#5392f9"/></g><path d="m245.358 204.388-7.59-13.477c-1.159-2.059-3.221-3.451-5.563-3.757l-26.743-3.494-25.686-36.086c-2.402-3.375-7.085-4.163-10.459-1.761-3.375 2.402-4.163 7.085-1.761 10.459l25.407 35.695-10.032 22.767c-.952 2.162-.831 4.646.328 6.705l7.59 13.477c1.501 2.666 4.389 4.06 7.25 3.787 1.012-.096 2.022-.402 2.965-.933 3.609-2.033 4.887-6.606 2.854-10.215l-5.748-10.207 8.13-18.451 20.238 2.644 5.749 10.207c1.501 2.666 4.389 4.06 7.25 3.788 1.012-.096 2.022-.402 2.965-.933 3.611-2.032 4.889-6.605 2.856-10.215z" fill="#ddebfd"/><g><path d="m174.425 160.811 6.103-3.951c9.561-6.189 12.295-18.956 6.106-28.518l-36.948-57.081c-6.189-9.561-18.957-12.295-28.518-6.106l-6.103 3.951c-9.561 6.189-12.295 18.957-6.106 28.518l36.948 57.081c6.189 9.561 18.957 12.295 28.518 6.106z" fill="#9ec8fc"/></g><g><path d="m462.865 305.714h-411.672v66.712h411.672c18.422 0 33.356-14.934 33.356-33.356.001-18.422-14.934-33.356-33.356-33.356z" fill="#bed9fd"/></g><g><path d="m462.865 305.714h-30c18.422 0 33.356 14.934 33.356 33.356 0 18.422-14.934 33.356-33.356 33.356h30c18.422 0 33.356-14.934 33.356-33.356.001-18.422-14.934-33.356-33.356-33.356z" fill="#9ec8fc"/></g><g><circle cx="102.547" cy="339.07" fill="#80b6fc" r="7.5"/></g><g><circle cx="160.617" cy="339.07" fill="#80b6fc" r="7.5"/></g><g><circle cx="218.687" cy="339.07" fill="#80b6fc" r="7.5"/></g><g><circle cx="276.756" cy="339.07" fill="#80b6fc" r="7.5"/></g><g><circle cx="334.826" cy="339.07" fill="#80b6fc" r="7.5"/></g><g><circle cx="392.896" cy="339.07" fill="#80b6fc" r="7.5"/></g><g><circle cx="450.965" cy="339.07" fill="#80b6fc" r="7.5"/></g><g><path d="m50.75 166.462-6.45-3.354c-10.105-5.254-14.037-17.705-8.783-27.81l31.366-60.328c5.254-10.105 17.705-14.037 27.81-8.783l6.45 3.354c10.105 5.254 14.037 17.705 8.783 27.81l-31.366 60.328c-5.255 10.105-17.705 14.037-27.81 8.783z" fill="#80b6fc"/></g><g><path d="m60.927 372.426h-48.097v-148.497c0-10.097 8.185-18.283 18.283-18.283h11.532c10.097 0 18.282 8.185 18.282 18.283z" fill="#80b6fc"/></g><g><path d="m5.305 464.976h68.451v-96.528c0-20.367-16.511-36.878-36.878-36.878-20.367 0-36.878 16.511-36.878 36.878v91.224c0 2.929 2.375 5.304 5.305 5.304z" fill="#5392f9"/></g><g><path d="m36.878 331.57c-5.343 0-10.416 1.146-15 3.19 12.889 5.748 21.878 18.664 21.878 33.688v96.528h30v-96.528c0-20.367-16.511-36.878-36.878-36.878z" fill="#4981f8"/></g><g><ellipse cx="39.743" cy="182.926" fill="#5392f9" rx="29.773" ry="29.773" transform="matrix(.013 -1 1 .013 -143.669 220.365)"/></g><g><ellipse cx="109.409" cy="61.026" fill="#5392f9" rx="29.773" ry="29.773" transform="matrix(.069 -.998 .998 .069 41.02 165.99)"/></g></g></svg>