<svg height="511pt" viewBox="0 -3 511.90799 511" width="511pt" xmlns="http://www.w3.org/2000/svg"><path d="m136.003906 240.535156c-3.167968 0-6.167968-1.898437-7.425781-5.023437l-64.207031-160.097657c-1.648438-4.105468.34375-8.761718 4.449218-10.398437 4.105469-1.671875 8.757813.34375 10.398438 4.445313l64.210938 160.097656c1.644531 4.101562-.34375 8.757812-4.449219 10.398437-.976563.402344-1.984375.578125-2.976563.578125zm0 0" fill="#ccd1d9"/><path d="m8.003906 240.535156c-.984375 0-1.992187-.175781-2.960937-.570312-4.101563-1.628906-6.109375-6.285156-4.472657-10.390625l63.792969-160.097657c1.640625-4.101562 6.296875-6.117187 10.394531-4.460937 4.101563 1.628906 6.109376 6.285156 4.46875 10.390625l-63.789062 160.085938c-1.257812 3.136718-4.257812 5.042968-7.433594 5.042968zm0 0" fill="#ccd1d9"/><path d="m432.074219 240.535156c-3.167969 0-6.167969-1.898437-7.421875-5.023437l-64.207032-160.097657c-1.648437-4.105468.34375-8.761718 4.445313-10.398437 4.113281-1.671875 8.761719.34375 10.402344 4.445313l64.207031 160.097656c1.648438 4.101562-.34375 8.757812-4.449219 10.398437-.976562.402344-1.984375.578125-2.976562.578125zm0 0" fill="#ccd1d9"/><path d="m304.074219 240.535156c-.980469 0-1.988281-.175781-2.957031-.570312-4.105469-1.628906-6.113282-6.285156-4.472657-10.390625l63.792969-160.097657c1.628906-4.101562 6.277344-6.117187 10.390625-4.46875 4.105469 1.628907 6.113281 6.285157 4.472656 10.390626l-63.792969 160.09375c-1.253906 3.136718-4.253906 5.042968-7.433593 5.042968zm0 0" fill="#ccd1d9"/><path d="m235.957031 16.375v24.160156h-31.839843v-24.160156c0-8.808594 7.125-15.921875 15.917968-15.921875 8.792969 0 15.921875 7.121094 15.921875 15.921875zm0 0" fill="#ccd1d9"/><path d="m384.195312 56.535156c0 8.800782-7.128906 15.917969-15.917968 15.917969h-296.242188c-.078125 0-.160156 0-.230468 0-8.71875-.167969-15.769532-7.199219-15.769532-15.917969 0-8.800781 7.128906-15.921875 15.921875-16h296.320313c8.796875 0 15.917968 7.199219 15.917968 16zm0 0" fill="#e6e9ed"/><path d="m235.957031 72.535156v256.015625h-31.839843v-256.097656h31.839843zm0 0" fill="#ccd1d9"/><path d="m272.035156 352.558594v8.128906c0 .0625-3.597656.117188-8 .117188h-88c-4.398437 0-8-.054688-8-.117188 0-.074219 0-3.730469 0-8.128906v-24.015625c0-4.402344 3.601563-8 8-8h20.082032 16 15.839843 16 20.078125c4.402344 0 8 3.597656 8 8zm0 0" fill="#e6e9ed"/><path d="m160.035156 416.773438c4.402344 0 8 3.601562 8 8v23.847656c0 4.402344-3.597656 8-8 8h-56c-4.398437 0-8-3.597656-8-8v-23.847656c0-4.398438 3.601563-8 8-8zm0 0" fill="#545c66"/><path d="m303.957031 352.789062v80h-223.921875v-.167968c-8.800781 0-16-7.191406-16-16v-48.230469c0-7.6875 5.519532-14.167969 12.800782-15.6875l3.199218.085937zm0 0" fill="#656d78"/><path d="m503.90625 224.535156h-199.957031c-4.425781 0-8 3.574219-8 8v264.0625c0 4.425782 3.574219 8 8 8h199.957031c4.425781 0 8-3.574218 8-8v-264.0625c0-4.425781-3.574219-8-8-8zm-104 115.847656c0-2.199218 1.800781-4 4-4 2.203125 0 4 1.800782 4 4 0 2.199219-1.796875 4-4 4-2.199219 0-4-1.792968-4-4zm4 52.0625c2.203125 0 4 1.800782 4 4 0 2.199219-1.796875 4-4 4-2.199219 0-4-1.800781-4-4 0-2.199218 1.800781-4 4-4zm0 56.152344c2.203125 0 4 1.800782 4 4 0 2.199219-1.796875 4-4 4-2.199219 0-4-1.800781-4-4 0-2.199218 1.800781-4 4-4zm-52.054688 4c0 2.199219-1.800781 4-4 4-2.199218 0-4-1.800781-4-4 0-2.199218 1.800782-4 4-4 2.199219 0 4 1.792969 4 4zm-4-52.152344c-2.199218 0-4-1.800781-4-4 0-2.199218 1.800782-4 4-4 2.199219 0 4 1.800782 4 4 0 2.199219-1.792968 4-4 4zm0-56.0625c-2.199218 0-4-1.800781-4-4 0-2.199218 1.800782-4 4-4 2.199219 0 4 1.800782 4 4 0 2.199219-1.792968 4-4 4zm108.113282 52.0625c0-2.199218 1.800781-4 4-4 2.199218 0 4 1.800782 4 4 0 2.199219-1.800782 4-4 4-2.199219 0-4-1.792968-4-4zm0-56.0625c0-2.199218 1.800781-4 4-4 2.199218 0 4 1.800782 4 4 0 2.199219-1.800782 4-4 4-2.199219 0-4-1.792968-4-4zm4 108.214844c2.199218 0 4 1.800782 4 4 0 2.199219-1.800782 4-4 4-2.199219 0-4-1.800781-4-4 0-2.199218 1.800781-4 4-4zm-115.90625-160.113281v-15.992187h119.976562v15.992187zm0 0" fill="#e6e9ed"/><g fill="#ccd1d9"><path d="m363.875 460.621094c0 8.835937-7.164062 16-16 16s-16-7.164063-16-16c0-8.835938 7.164062-16 16-16s16 7.164062 16 16zm0 0"/><path d="m363.875 404.460938c0 8.835937-7.164062 16-16 16s-16-7.164063-16-16c0-8.835938 7.164062-16 16-16s16 7.164062 16 16zm0 0"/><path d="m403.875 388.460938c8.847656 0 16 7.152343 16 16 0 8.847656-7.152344 16-16 16-8.75 0-16-7.152344-16-16 0-8.847657 7.25-16 16-16zm0 0"/><path d="m403.875 444.621094c8.847656 0 16 7.152344 16 16s-7.152344 16-16 16c-8.75 0-16-7.152344-16-16s7.25-16 16-16zm0 0"/><path d="m475.957031 404.460938c0 8.835937-7.164062 16-16 16-8.835937 0-16-7.164063-16-16 0-8.835938 7.164063-16 16-16 8.835938 0 16 7.164062 16 16zm0 0"/><path d="m475.957031 460.621094c0 8.835937-7.164062 16-16 16-8.835937 0-16-7.164063-16-16 0-8.835938 7.164063-16 16-16 8.835938 0 16 7.164062 16 16zm0 0"/><path d="m475.957031 348.382812c0 8.835938-7.164062 16-16 16-8.835937 0-16-7.164062-16-16 0-8.835937 7.164063-16 16-16 8.835938 0 16 7.164063 16 16zm0 0"/><path d="m403.875 332.382812c8.847656 0 16 7.152344 16 16 0 8.839844-7.152344 16-16 16-8.75 0-16-7.160156-16-16 0-8.847656 7.25-16 16-16zm0 0"/><path d="m363.875 348.382812c0 8.835938-7.164062 16-16 16s-16-7.164062-16-16c0-8.835937 7.164062-16 16-16s16 7.164063 16 16zm0 0"/></g><path d="m340.035156 260.535156c-4.398437 0-8 3.597656-8 8v23.917969c0 4.402344 3.601563 8 8 8h128c4.402344 0 8-3.597656 8-8v-23.917969c0-4.402344-3.597656-8-8-8zm0 0" fill="#5d9cec"/><path d="m363.875 452.613281c0 8.835938-7.164062 16-16 16s-16-7.164062-16-16c0-8.835937 7.164062-16 16-16s16 7.164063 16 16zm0 0" fill="#f5f7fa"/><path d="m363.875 396.453125c0 8.835937-7.164062 16-16 16s-16-7.164063-16-16 7.164062-16 16-16 16 7.164063 16 16zm0 0" fill="#f5f7fa"/><path d="m403.875 380.453125c8.847656 0 16 7.152344 16 16s-7.152344 16-16 16c-8.75 0-16-7.152344-16-16s7.25-16 16-16zm0 0" fill="#f5f7fa"/><path d="m403.875 436.613281c8.847656 0 16 7.152344 16 16 0 8.847657-7.152344 16-16 16-8.75 0-16-7.152343-16-16 0-8.847656 7.25-16 16-16zm0 0" fill="#f5f7fa"/><path d="m475.957031 396.453125c0 8.835937-7.164062 16-16 16-8.835937 0-16-7.164063-16-16s7.164063-16 16-16c8.835938 0 16 7.164063 16 16zm0 0" fill="#f5f7fa"/><path d="m475.957031 452.613281c0 8.835938-7.164062 16-16 16-8.835937 0-16-7.164062-16-16 0-8.835937 7.164063-16 16-16 8.835938 0 16 7.164063 16 16zm0 0" fill="#f5f7fa"/><path d="m475.957031 340.375c0 8.835938-7.164062 16-16 16-8.835937 0-16-7.164062-16-16s7.164063-16 16-16c8.835938 0 16 7.164062 16 16zm0 0" fill="#f5f7fa"/><path d="m403.875 324.375c8.847656 0 16 7.152344 16 16 0 8.839844-7.152344 16-16 16-8.75 0-16-7.160156-16-16 0-8.847656 7.25-16 16-16zm0 0" fill="#f5f7fa"/><path d="m363.875 340.375c0 8.835938-7.164062 16-16 16s-16-7.164062-16-16 7.164062-16 16-16 16 7.164062 16 16zm0 0" fill="#f5f7fa"/><path d="m136.003906 224.535156h-128c-4.425781 0-7.99999975 3.574219-7.99999975 8 0 39.703125 32.29687475 72 71.99999975 72s72-32.296875 72-72c0-4.425781-3.574218-8-8-8zm0 0" fill="#656d78"/></svg>