<?xml version="1.0" encoding="UTF-8" standalone="no"?>
<!DOCTYPE svg PUBLIC "-//W3C//DTD SVG 1.1//EN" "http://www.w3.org/Graphics/SVG/1.1/DTD/svg11.dtd">
<svg version="1.1" xmlns="http://www.w3.org/2000/svg" xmlns:xlink="http://www.w3.org/1999/xlink" preserveAspectRatio="xMidYMid meet" viewBox="0 0 640 640" width="200" height="200"><defs><path d="M210.83 468.19C189 468.19 171.31 450.5 171.31 428.67C171.31 406.94 171.31 233.06 171.31 211.33C171.31 189.5 189 171.81 210.83 171.81C232.56 171.81 406.44 171.81 428.17 171.81C450 171.81 467.69 189.5 467.69 211.33C467.69 233.06 467.69 406.94 467.69 428.67C467.69 450.5 449.99 468.19 428.17 468.19C384.7 468.19 232.56 468.19 210.83 468.19Z" id="b9xRYmcZo"></path><path d="M210.83 438.55C205.37 438.55 200.95 434.13 200.95 428.67C200.95 406.94 200.95 233.06 200.95 211.33C200.95 205.87 205.37 201.45 210.83 201.45C232.56 201.45 406.44 201.45 428.17 201.45C433.63 201.45 438.05 205.87 438.05 211.33C438.05 233.06 438.05 406.94 438.05 428.67C438.05 434.13 433.63 438.55 428.17 438.55C384.7 438.55 232.56 438.55 210.83 438.55Z" id="c4eWxuv1Xw"></path><path d="M52.76 221.21C41.85 221.21 33 230.05 33 240.96C33 251.88 41.85 260.72 52.76 260.72C63.67 260.72 72.52 251.88 72.52 240.96C72.52 230.05 63.67 221.21 52.76 221.21Z" id="c1sWHrEE68"></path><path d="M586.24 379.28C575.33 379.28 566.49 388.12 566.49 399.04C566.49 409.95 575.33 418.79 586.24 418.79C597.15 418.79 606 409.95 606 399.04C606 388.12 597.15 379.28 586.24 379.28Z" id="bCh5tWz5A"></path><path d="M33 468.19C22.09 468.19 13.25 477.03 13.25 487.94C13.25 498.85 22.09 507.7 33 507.7C43.91 507.7 52.76 498.85 52.76 487.94C52.76 477.03 43.91 468.19 33 468.19Z" id="b2Tm3vzPvP"></path><path d="M606 132.3C595.09 132.3 586.24 141.15 586.24 152.06C586.24 162.97 595.09 171.81 606 171.81C616.91 171.81 625.75 162.97 625.75 152.06C625.75 141.15 616.91 132.3 606 132.3Z" id="aIUdZDiED"></path><path d="M398.53 33.51C387.62 33.51 378.78 42.35 378.78 53.26C378.78 64.17 387.62 73.02 398.53 73.02C409.44 73.02 418.29 64.17 418.29 53.26C418.29 42.35 409.44 33.51 398.53 33.51Z" id="blYOjuWNX"></path><path d="M240.46 566.99C229.55 566.99 220.71 575.83 220.71 586.75C220.71 597.66 229.55 606.5 240.46 606.5C251.37 606.5 260.22 597.66 260.22 586.75C260.22 575.83 251.37 566.99 240.46 566.99Z" id="ara08fpd"></path><path d="M151.56 13.75C140.65 13.75 131.8 22.59 131.8 33.5C131.8 44.41 140.65 53.26 151.56 53.26C162.47 53.26 171.31 44.41 171.31 33.5C171.31 22.59 162.47 13.75 151.56 13.75Z" id="f1Bjgp68hR"></path><path d="M487.44 586.75C476.53 586.75 467.68 595.59 467.68 606.5C467.68 617.41 476.53 626.26 487.44 626.26C498.35 626.26 507.2 617.41 507.2 606.5C507.2 595.59 498.35 586.75 487.44 586.75Z" id="e3HTJ0Tsq"></path><path d="M326.87 407.41C333.32 414.64 342.79 418.79 352.84 418.79C370.13 418.79 384.65 406.69 385.9 391.24C386.16 388.02 387.98 385.14 390.77 383.51C401.65 377.15 408.41 366.07 408.41 354.58C408.41 346.29 404.96 338.23 398.68 331.89C394.87 328.04 394.87 321.84 398.68 317.99C404.96 311.65 408.41 303.59 408.41 295.3C408.41 280.38 397.52 267.23 381.31 262.58C376.27 261.13 373.24 255.98 374.41 250.86C374.86 248.93 375.07 247.36 375.07 245.91C375.07 232.29 362.61 221.21 347.28 221.21C339.36 221.21 331.78 224.25 326.5 229.56C322.78 233.28 316.22 233.28 312.49 229.56C307.22 224.25 299.63 221.21 291.71 221.21C276.39 221.21 263.93 232.29 263.93 245.91C263.93 247.54 264.11 249.18 264.46 250.77C265.58 255.87 262.56 260.95 257.54 262.39C241.42 267.04 230.59 280.26 230.59 295.3C230.59 302.49 233.17 309.43 238.06 315.37C240.97 318.9 241.07 323.97 238.31 327.62C233.26 334.28 230.59 341.9 230.59 349.64C230.59 361.97 237.26 373.78 248.45 381.24C251.18 383.06 252.83 386.1 252.85 389.38C252.99 405.6 267.93 418.79 286.16 418.79C296.21 418.79 305.68 414.64 312.13 407.41C314 405.31 316.68 404.11 319.5 404.11C322.32 404.11 325 405.31 326.87 407.41Z" id="d25TcXbPM6"></path><path d="M476.93 310.76L476.93 289.73C501.02 289.73 514.41 289.73 517.08 289.73C522.19 289.73 526.33 285.59 526.33 280.48C526.33 275.38 522.19 271.24 517.08 271.24C514.41 271.24 501.02 271.24 476.93 271.24L476.93 250.21C493.66 250.21 502.95 250.21 504.81 250.21C515.19 250.21 524.96 246.17 532.3 238.82C538.38 232.74 587.01 184.11 593.09 178.03C597.05 180 601.44 181.05 606 181.05C613.74 181.05 621.03 178.04 626.5 172.56C631.98 167.08 635 159.8 635 152.05C635 144.31 631.98 137.02 626.5 131.55C621.03 126.07 613.74 123.05 606 123.05C598.25 123.05 590.97 126.07 585.49 131.54C580.01 137.02 577 144.3 577 152.05C577 156.61 578.05 161 580.02 164.96C573.94 171.04 525.31 219.67 519.23 225.75C515.38 229.6 510.25 231.72 504.81 231.72C502.95 231.72 493.66 231.72 476.93 231.72C476.93 219.49 476.93 212.69 476.93 211.33C476.93 184.44 455.05 162.57 428.17 162.57C426.81 162.57 420.01 162.57 407.78 162.57C407.78 113.47 407.78 86.2 407.78 80.74C419.25 76.87 427.53 66.02 427.53 53.26C427.53 37.27 414.52 24.26 398.53 24.26C382.54 24.26 369.53 37.27 369.53 53.26C369.53 66.02 377.82 76.87 389.29 80.74C389.29 86.2 389.29 113.47 389.29 162.57L368.26 162.57C368.26 138.48 368.26 125.09 368.26 122.41C368.26 117.31 364.12 113.17 359.02 113.17C353.91 113.17 349.77 117.31 349.77 122.41C349.77 125.09 349.77 138.48 349.77 162.57L328.74 162.57C328.74 73.27 328.74 23.66 328.74 13.74C328.74 8.64 324.6 4.5 319.5 4.5C314.39 4.5 310.26 8.64 310.26 13.74C310.26 23.66 310.26 73.27 310.26 162.57L289.23 162.57C289.23 138.48 289.23 125.09 289.23 122.41C289.23 117.31 285.09 113.17 279.98 113.17C274.88 113.17 270.74 117.31 270.74 122.41C270.74 125.09 270.74 138.48 270.74 162.57L249.71 162.57C249.71 145.84 249.71 136.55 249.71 134.69C249.71 124.31 245.66 114.54 238.32 107.2C232.24 101.12 183.59 52.47 177.51 46.39C182.88 35.54 181.08 22.02 172.06 13C160.75 1.69 142.35 1.69 131.05 13C119.74 24.3 119.74 42.7 131.05 54.01C136.7 59.66 144.13 62.49 151.55 62.49C155.98 62.49 160.39 61.46 164.44 59.46C170.52 65.54 219.17 114.19 225.25 120.27C229.1 124.12 231.22 129.24 231.22 134.69C231.22 136.55 231.22 145.84 231.22 162.57C218.99 162.57 212.19 162.57 210.83 162.57C206.71 162.57 202.61 163.09 198.64 164.1C193.7 165.38 190.72 170.42 192 175.36C193.27 180.3 198.31 183.28 203.25 182.01C205.71 181.38 208.26 181.05 210.83 181.05C232.56 181.05 406.44 181.05 428.17 181.05C444.86 181.05 458.44 194.64 458.44 211.33C458.44 233.06 458.44 406.94 458.44 428.67C458.44 431.24 458.12 433.79 457.49 436.24C456.22 441.19 459.2 446.22 464.14 447.5C464.91 447.69 465.69 447.79 466.45 447.79C470.57 447.79 474.32 445.02 475.39 440.84C476.41 436.89 476.93 432.79 476.93 428.67C476.93 427.31 476.93 420.51 476.93 408.28C526.02 408.28 553.3 408.28 558.75 408.28C562.62 419.75 573.48 428.03 586.24 428.03C602.23 428.03 615.24 415.02 615.24 399.03C615.24 383.04 602.23 370.03 586.24 370.03C573.48 370.03 562.62 378.32 558.75 389.79C553.3 389.79 526.02 389.79 476.93 389.79L476.93 368.76C501.02 368.76 514.41 368.76 517.08 368.76C522.19 368.76 526.33 364.62 526.33 359.52C526.33 354.41 522.19 350.27 517.08 350.27C514.41 350.27 501.02 350.27 476.93 350.27L476.93 329.24C566.22 329.24 615.83 329.24 625.75 329.24C630.86 329.24 635 325.1 635 320C635 314.9 630.86 310.76 625.75 310.76C605.91 310.76 556.3 310.76 476.93 310.76ZM606 141.54C608.8 141.54 611.44 142.63 613.43 144.62C615.42 146.6 616.51 149.24 616.51 152.05C616.51 154.86 615.42 157.5 613.43 159.49C611.44 161.47 608.8 162.57 606 162.57C603.19 162.57 600.55 161.47 598.56 159.49C598.56 159.49 598.56 159.49 598.56 159.49C596.57 157.5 595.48 154.86 595.48 152.05C595.48 149.24 596.57 146.6 598.56 144.62C600.55 142.63 603.19 141.54 606 141.54ZM409.05 53.26C409.05 59.06 404.33 63.77 398.53 63.77C392.74 63.77 388.02 59.06 388.02 53.26C388.02 47.46 392.73 42.74 398.53 42.74C404.33 42.74 409.05 47.46 409.05 53.26ZM144.12 26.07C146.17 24.02 148.86 22.99 151.55 22.99C154.25 22.99 156.94 24.02 158.99 26.07C163.09 30.17 163.09 36.84 158.99 40.94C158.99 40.94 158.99 40.94 158.99 40.94C154.89 45.04 148.22 45.04 144.12 40.94C140.02 36.84 140.02 30.17 144.12 26.07ZM596.75 399.03C596.75 404.83 592.04 409.55 586.24 409.55C580.44 409.55 575.72 404.83 575.72 399.03C575.72 393.24 580.44 388.52 586.24 388.52C592.04 388.52 596.75 393.24 596.75 399.03Z" id="arKkrV58T"></path><path d="M413.75 519.73C409.9 515.88 407.78 510.76 407.78 505.31C407.78 503.45 407.78 494.16 407.78 477.43C420.01 477.43 426.81 477.43 428.17 477.43C432.29 477.43 436.39 476.91 440.35 475.9C445.3 474.62 448.27 469.58 447 464.64C445.73 459.7 440.69 456.72 435.75 457.99C433.29 458.62 430.74 458.94 428.17 458.94C406.44 458.94 232.56 458.94 210.83 458.94C194.13 458.94 180.55 445.36 180.55 428.67C180.55 406.94 180.55 233.06 180.55 211.33C180.55 208.76 180.88 206.21 181.51 203.75C182.78 198.81 179.8 193.77 174.86 192.5C169.92 191.23 164.88 194.2 163.61 199.15C162.58 203.11 162.07 207.21 162.07 211.33C162.07 212.69 162.07 219.49 162.07 231.72C112.97 231.72 85.7 231.72 80.24 231.72C76.37 220.25 65.52 211.96 52.76 211.96C36.77 211.96 23.76 224.97 23.76 240.97C23.76 256.96 36.77 269.97 52.76 269.97C65.52 269.97 76.37 261.68 80.24 250.21C85.7 250.21 112.97 250.21 162.07 250.21L162.07 271.24C137.98 271.24 124.59 271.24 121.91 271.24C116.81 271.24 112.67 275.38 112.67 280.48C112.67 285.59 116.81 289.73 121.91 289.73C124.59 289.73 137.98 289.73 162.07 289.73L162.07 310.76C72.77 310.76 23.16 310.76 13.24 310.76C8.14 310.76 4 314.9 4 320C4 325.1 8.14 329.24 13.24 329.24C23.16 329.24 72.77 329.24 162.07 329.24L162.07 350.27C137.98 350.27 124.59 350.27 121.91 350.27C116.81 350.27 112.67 354.41 112.67 359.52C112.67 364.62 116.81 368.76 121.91 368.76C124.59 368.76 137.98 368.76 162.07 368.76L162.07 389.79C145.34 389.79 136.05 389.79 134.19 389.79C123.8 389.79 114.04 393.83 106.7 401.18C100.62 407.26 51.99 455.89 45.91 461.97C41.95 460 37.56 458.95 33 458.95C25.25 458.95 17.97 461.96 12.49 467.44C7.02 472.92 4 480.2 4 487.95C4 495.69 7.02 502.98 12.5 508.45C17.97 513.93 25.26 516.95 33 516.95C40.75 516.95 48.03 513.93 53.51 508.45C58.99 502.98 62 495.69 62 487.95C62 483.39 60.95 479 58.98 475.04C65.06 468.96 113.69 420.33 119.77 414.25C123.62 410.4 128.75 408.28 134.19 408.28C136.05 408.28 145.34 408.28 162.07 408.28C162.07 420.51 162.07 427.31 162.07 428.67C162.07 455.56 183.95 477.43 210.83 477.43C212.19 477.43 218.99 477.43 231.22 477.43C231.22 526.52 231.22 553.8 231.22 559.25C219.75 563.12 211.47 573.98 211.47 586.74C211.47 602.73 224.48 615.74 240.47 615.74C256.46 615.74 269.47 602.73 269.47 586.74C269.47 573.98 261.18 563.12 249.71 559.25C249.71 553.8 249.71 526.52 249.71 477.43L270.74 477.43C270.74 501.52 270.74 514.91 270.74 517.58C270.74 522.69 274.88 526.83 279.98 526.83C285.09 526.83 289.23 522.69 289.23 517.58C289.23 514.91 289.23 501.52 289.23 477.43L310.26 477.43C310.26 566.73 310.26 616.34 310.26 626.26C310.26 631.36 314.39 635.5 319.5 635.5C324.6 635.5 328.74 631.36 328.74 626.26C328.74 616.34 328.74 566.73 328.74 477.43L349.77 477.43C349.77 501.52 349.77 514.91 349.77 517.59C349.77 522.69 353.91 526.83 359.01 526.83C364.12 526.83 368.26 522.69 368.26 517.59C368.26 514.91 368.26 501.52 368.26 477.43L389.29 477.43C389.29 494.16 389.29 503.45 389.29 505.31C389.29 515.69 393.33 525.46 400.68 532.8C406.76 538.88 455.41 587.53 461.49 593.61C456.12 604.46 457.92 617.98 466.94 627C472.59 632.66 480.02 635.49 487.45 635.49C494.87 635.49 502.3 632.66 507.95 627C519.26 615.7 519.26 597.3 507.95 585.99C498.93 576.97 485.41 575.17 474.56 580.54C462.4 568.38 419.83 525.81 413.75 519.73ZM42.24 240.97C42.24 235.17 46.96 230.45 52.76 230.45C58.56 230.45 63.27 235.17 63.27 240.97C63.28 246.76 58.56 251.48 52.76 251.48C46.96 251.48 42.24 246.76 42.24 240.97ZM33 498.46C30.19 498.46 27.55 497.37 25.57 495.38C23.58 493.4 22.49 490.76 22.49 487.95C22.49 485.14 23.58 482.5 25.57 480.51C27.55 478.53 30.19 477.43 33 477.43C35.81 477.43 38.45 478.53 40.44 480.51C40.44 480.51 40.44 480.51 40.44 480.51C42.42 482.5 43.52 485.14 43.52 487.95C43.52 490.76 42.42 493.4 40.44 495.38C38.45 497.37 35.81 498.46 33 498.46ZM229.95 586.74C229.95 580.94 234.67 576.23 240.47 576.23C246.26 576.23 250.98 580.94 250.98 586.74C250.98 592.54 246.26 597.26 240.47 597.26C234.67 597.26 229.95 592.54 229.95 586.74ZM480.01 613.93C475.91 609.83 475.91 603.16 480.01 599.06C482.06 597.01 484.75 595.99 487.45 595.99C490.14 595.99 492.83 597.01 494.88 599.06C498.98 603.16 498.98 609.83 494.88 613.93C490.78 618.03 484.11 618.03 480.01 613.93Z" id="anzzp7OP3"></path><path d="M243.57 389.15C243.57 410.59 262.68 428.04 286.16 428.04C299.65 428.04 311.69 422.27 319.5 413.3C327.31 422.27 339.35 428.04 352.84 428.04C375.44 428.04 393.97 411.88 395.34 391.55C409.06 383.59 417.65 369.64 417.65 354.58C417.65 343.5 412.93 332.93 404.8 324.94C412.93 316.95 417.65 306.38 417.65 295.3C417.65 275.54 403.2 258.79 383.4 253.35C383.99 250.93 384.31 248.45 384.31 245.91C384.31 227.19 367.7 211.96 347.28 211.96C336.23 211.96 326.29 216.44 319.5 223.51C312.71 216.44 302.77 211.96 291.72 211.96C271.3 211.96 254.69 227.19 254.69 245.91C254.69 248.45 255.01 250.93 255.6 253.35C235.8 258.79 221.35 275.53 221.35 295.3C221.35 304.96 224.76 314.08 231.08 321.61C224.9 329.6 221.35 339.31 221.35 349.64C221.34 365.36 229.74 380.03 243.57 389.13C243.57 389.14 243.57 389.15 243.57 389.15ZM269.5 269.99C271.61 269.99 273.73 269.27 275.47 267.8C279.01 264.8 279.72 259.71 277.35 255.88C277.27 255.76 277.21 255.65 277.14 255.54C277.1 255.48 277.05 255.43 277.01 255.38C276.87 255.17 276.72 254.98 276.57 254.79C276.56 254.78 276.56 254.78 276.55 254.77C275.01 252.95 273.17 249.93 273.17 245.91C273.17 237.38 281.49 230.45 291.71 230.45C301.93 230.45 310.25 237.38 310.25 245.91C310.25 251.01 314.39 255.15 319.5 255.15C324.6 255.15 328.74 251.01 328.74 245.91C328.74 237.38 337.06 230.45 347.28 230.45C357.5 230.45 365.82 237.38 365.82 245.91C365.82 248.18 365.23 250.13 364.44 251.72C359.18 252.22 354.09 253.49 349.27 255.53C344.56 257.51 342.36 262.93 344.34 267.63C346.32 272.34 351.74 274.54 356.45 272.56C360.44 270.88 364.74 270.01 369.23 269.97C369.32 269.98 369.4 269.99 369.49 269.99C369.57 269.99 369.66 269.97 369.74 269.97C385.99 270.08 399.16 281.4 399.16 295.3C399.16 304.04 393.85 312.06 384.94 316.76C381.91 318.36 380.01 321.51 380.01 324.94C380.01 328.37 381.91 331.51 384.94 333.11C393.85 337.81 399.16 345.84 399.16 354.58C399.16 361.09 396.14 367.31 391.02 371.96C386.16 362.96 377.57 355.8 366.72 352.39C361.85 350.86 356.66 353.57 355.13 358.43C353.6 363.3 356.31 368.49 361.18 370.02C370.6 372.98 376.94 380.67 376.94 389.16C376.94 400.4 366.13 409.55 352.84 409.55C339.55 409.55 328.74 400.4 328.74 389.16C328.74 383.23 328.74 335.81 328.74 329.88C328.74 318.63 339.55 309.49 352.84 309.49C357.94 309.49 362.08 305.35 362.08 300.24C362.08 295.14 357.94 291 352.84 291C343.9 291 335.6 293.53 328.74 297.85C328.74 296.67 328.74 287.22 328.74 286.04C328.74 280.94 324.6 276.8 319.5 276.8C314.39 276.8 310.25 280.94 310.25 286.04C310.25 291.17 310.25 332.22 310.25 337.36C307.14 335.4 303.73 333.79 300.04 332.63C295.17 331.1 289.98 333.81 288.45 338.67C286.92 343.55 289.63 348.73 294.5 350.26C303.92 353.23 310.25 360.92 310.25 369.4C310.25 371.37 310.25 387.18 310.25 389.15C310.25 400.4 299.44 409.55 286.15 409.55C272.86 409.55 262.05 400.4 262.05 389.15C262.05 384.33 264.1 379.65 267.81 375.96C271.43 372.36 271.44 366.51 267.85 362.89C264.25 359.27 258.4 359.25 254.77 362.85C252.56 365.05 250.65 367.46 249.07 370.02C243.23 364.49 239.82 357.23 239.82 349.64C239.82 335.94 250.57 323.91 265.96 320.38C270.94 319.24 274.04 314.28 272.9 309.31C271.76 304.33 266.8 301.22 261.83 302.36C255.63 303.78 249.93 306.16 244.87 309.27C241.59 305.15 239.83 300.33 239.83 295.3C239.83 281.4 253.01 270.08 269.26 269.97C269.34 269.97 269.42 269.99 269.5 269.99Z" id="h1BGJ1yGD"></path></defs><g><g><g><g><use xlink:href="#b9xRYmcZo" opacity="1" fill="#037f8c" fill-opacity="1"></use><g><use xlink:href="#b9xRYmcZo" opacity="1" fill-opacity="0" stroke="#000000" stroke-width="1" stroke-opacity="0"></use></g></g><g><use xlink:href="#c4eWxuv1Xw" opacity="1" fill="#04d9b2" fill-opacity="1"></use><g><use xlink:href="#c4eWxuv1Xw" opacity="1" fill-opacity="0" stroke="#000000" stroke-width="1" stroke-opacity="0"></use></g></g><g><use xlink:href="#c1sWHrEE68" opacity="1" fill="#037f8c" fill-opacity="1"></use><g><use xlink:href="#c1sWHrEE68" opacity="1" fill-opacity="0" stroke="#000000" stroke-width="1" stroke-opacity="0"></use></g></g><g><use xlink:href="#bCh5tWz5A" opacity="1" fill="#037f8c" fill-opacity="1"></use><g><use xlink:href="#bCh5tWz5A" opacity="1" fill-opacity="0" stroke="#000000" stroke-width="1" stroke-opacity="0"></use></g></g><g><use xlink:href="#b2Tm3vzPvP" opacity="1" fill="#04d9b2" fill-opacity="1"></use><g><use xlink:href="#b2Tm3vzPvP" opacity="1" fill-opacity="0" stroke="#000000" stroke-width="1" stroke-opacity="0"></use></g></g><g><use xlink:href="#aIUdZDiED" opacity="1" fill="#04d9b2" fill-opacity="1"></use><g><use xlink:href="#aIUdZDiED" opacity="1" fill-opacity="0" stroke="#000000" stroke-width="1" stroke-opacity="0"></use></g></g><g><use xlink:href="#blYOjuWNX" opacity="1" fill="#037f8c" fill-opacity="1"></use><g><use xlink:href="#blYOjuWNX" opacity="1" fill-opacity="0" stroke="#000000" stroke-width="1" stroke-opacity="0"></use></g></g><g><use xlink:href="#ara08fpd" opacity="1" fill="#037f8c" fill-opacity="1"></use><g><use xlink:href="#ara08fpd" opacity="1" fill-opacity="0" stroke="#000000" stroke-width="1" stroke-opacity="0"></use></g></g><g><use xlink:href="#f1Bjgp68hR" opacity="1" fill="#04d9b2" fill-opacity="1"></use><g><use xlink:href="#f1Bjgp68hR" opacity="1" fill-opacity="0" stroke="#000000" stroke-width="1" stroke-opacity="0"></use></g></g><g><use xlink:href="#e3HTJ0Tsq" opacity="1" fill="#04d9b2" fill-opacity="1"></use><g><use xlink:href="#e3HTJ0Tsq" opacity="1" fill-opacity="0" stroke="#000000" stroke-width="1" stroke-opacity="0"></use></g></g><g><use xlink:href="#d25TcXbPM6" opacity="1" fill="#eeeeee" fill-opacity="1"></use><g><use xlink:href="#d25TcXbPM6" opacity="1" fill-opacity="0" stroke="#000000" stroke-width="1" stroke-opacity="0"></use></g></g><g><use xlink:href="#arKkrV58T" opacity="1" fill="#eeeeee" fill-opacity="1"></use><g><use xlink:href="#arKkrV58T" opacity="1" fill-opacity="0" stroke="#000000" stroke-width="1" stroke-opacity="0"></use></g></g><g><use xlink:href="#anzzp7OP3" opacity="1" fill="#eeeeee" fill-opacity="1"></use><g><use xlink:href="#anzzp7OP3" opacity="1" fill-opacity="0" stroke="#000000" stroke-width="1" stroke-opacity="0"></use></g></g><g><use xlink:href="#h1BGJ1yGD" opacity="1" fill="#000000" fill-opacity="1"></use><g><use xlink:href="#h1BGJ1yGD" opacity="1" fill-opacity="0" stroke="#000000" stroke-width="1" stroke-opacity="0"></use></g></g></g></g></g></svg>