<?xml version="1.0"?>
<svg xmlns="http://www.w3.org/2000/svg" xmlns:xlink="http://www.w3.org/1999/xlink" xmlns:svgjs="http://svgjs.com/svgjs" version="1.1" width="512" height="512" x="0" y="0" viewBox="0 0 64 64" style="enable-background:new 0 0 512 512" xml:space="preserve" class=""><g><g xmlns="http://www.w3.org/2000/svg" id="File-4" data-name="File"><path d="m53 3h-37a4 4 0 0 0 -4 4v54h34a4 4 0 0 0 4-4v-51a3 3 0 0 1 3-3z" fill="#ffffff" data-original="#ffde55" style="" class=""/><path d="m48.779 3a2.978 2.978 0 0 0 -.779 2v51a4 4 0 0 1 -4 4h-32v1h34a4 4 0 0 0 4-4v-51a3 3 0 0 1 3-3z" fill="#b9b9b9" data-original="#e5c84d" style="" class=""/><path d="m6 57a4 4 0 0 0 4 4h36a3.995 3.995 0 0 1 -4-4v-4h-36z" fill="#037f8c" data-original="#ff6243" style="" class=""/><path d="m58 7a4 4 0 0 0 -4-4h-1a3 3 0 0 0 -3 3v5h8z" fill="#037f8c" data-original="#ff6243" style="" class=""/><path d="m38.402 40.304-.402 6.696 5.598-3.696z" fill="#739791" data-original="#58595b" style="" class=""/><path d="m40 37.072h4v6h-4z" fill="#d1d3d4" transform="matrix(.5 -.866 .866 .5 -13.703 56.409)" data-original="#d1d3d4" style="" class=""/><path d="m38 26.679h20v6h-20z" fill="#04d9b2" transform="matrix(.5 -.866 .866 .5 -1.703 56.409)" data-original="#006df0" style="" class=""/><path d="m57.6 19.055a2 2 0 0 0 -.732-2.732l-1.732-1a2 2 0 0 0 -2.732.732l-2 3.464 5.2 3z" fill="#58b1a1" data-original="#004fac" style="" class=""/><g fill="#231f20"><path d="m33 16h-2a1 1 0 0 1 -1-1 1 1 0 0 0 -2 0 3 3 0 0 0 3 3v1a1 1 0 0 0 2 0v-1a3 3 0 0 0 0-6h-2a1 1 0 0 1 0-2h2a1 1 0 0 1 1 1 1 1 0 0 0 2 0 3 3 0 0 0 -3-3v-1a1 1 0 0 0 -2 0v1a3 3 0 0 0 0 6h2a1 1 0 0 1 0 2z" fill="#231f20" data-original="#231f20" style="" class=""/><path d="m58 12a1 1 0 0 0 1-1v-4a5 5 0 0 0 -5-5h-38a5 5 0 0 0 -5 5v45h-5a1 1 0 0 0 -1 1v4a5 5 0 0 0 5 5h36a5 5 0 0 0 5-5v-24.52l7.46-12.92a2.986 2.986 0 0 0 .3-2.28 2.936 2.936 0 0 0 -1.39-1.82l-1.74-1a2.956 2.956 0 0 0 -2.27-.3 2.916 2.916 0 0 0 -1.82 1.4l-.54.92v-4.48zm-7-6a2.006 2.006 0 0 1 2-2h1a3.009 3.009 0 0 1 3 3v3h-6zm-41 54a3.009 3.009 0 0 1 -3-3v-3h34v3a4.951 4.951 0 0 0 1.03 3zm39-3a3 3 0 1 1 -6 0v-4a1 1 0 0 0 -1-1h-29v-45a3.009 3.009 0 0 1 3-3h33.56a3.906 3.906 0 0 0 -.56 2v11.55l-.7-.4a1 1 0 0 0 -1.36.37l-3 5.2a1 1 0 0 0 .36 1.36 1.022 1.022 0 0 0 .5.14 1.006 1.006 0 0 0 .87-.5l2.5-4.34.87.51-9.5 16.45-2 3.46a1.032 1.032 0 0 0 -.14.44l-.34 5.76h-13.06a1 1 0 0 0 0 2h14a1.99 1.99 0 0 0 .55-.17l5.6-3.69a.919.919 0 0 0 .31-.34l2-3.46 2.54-4.39zm-9.23-17.06 1-1.73 3.46 2-1 1.73zm1.93 3.42-2.58 1.7.18-3.08zm11.57-26.81a1 1 0 0 1 1.36-.36l1.74 1a1.01 1.01 0 0 1 .36 1.37l-1.5 2.59-3.46-2zm.96 6.34-9 15.58-3.46-2 9-15.58z" fill="#231f20" data-original="#231f20" style="" class=""/><path d="m24 42h10a1 1 0 0 0 0-2h-10a1 1 0 0 0 0 2z" fill="#231f20" data-original="#231f20" style="" class=""/><path d="m24 36h10a1 1 0 0 0 0-2h-10a1 1 0 0 0 0 2z" fill="#231f20" data-original="#231f20" style="" class=""/><path d="m24 30h14a1 1 0 0 0 0-2h-14a1 1 0 0 0 0 2z" fill="#231f20" data-original="#231f20" style="" class=""/><path d="m24 24h14a1 1 0 0 0 0-2h-14a1 1 0 0 0 0 2z" fill="#231f20" data-original="#231f20" style="" class=""/><path d="m20 22h-2a1 1 0 0 0 0 2h2a1 1 0 0 0 0-2z" fill="#231f20" data-original="#231f20" style="" class=""/><path d="m20 28h-2a1 1 0 0 0 0 2h2a1 1 0 0 0 0-2z" fill="#231f20" data-original="#231f20" style="" class=""/><path d="m20 34h-2a1 1 0 0 0 0 2h2a1 1 0 0 0 0-2z" fill="#231f20" data-original="#231f20" style="" class=""/><path d="m20 40h-2a1 1 0 0 0 0 2h2a1 1 0 0 0 0-2z" fill="#231f20" data-original="#231f20" style="" class=""/></g></g></g></svg>
