<?xml version="1.0" encoding="UTF-8" standalone="no"?>
<!DOCTYPE svg PUBLIC "-//W3C//DTD SVG 1.1//EN" "http://www.w3.org/Graphics/SVG/1.1/DTD/svg11.dtd">
<svg version="1.1" xmlns="http://www.w3.org/2000/svg" xmlns:xlink="http://www.w3.org/1999/xlink" preserveAspectRatio="xMidYMid meet" viewBox="0 0 641 600" width="641" height="600"><defs><path d="M538.74 316.73L350.94 316.73C319.19 329.22 301.56 336.16 298.03 337.54C277.74 345.53 264.73 365.48 265.61 387.26C266.08 399.04 268.44 457.97 272.69 564.03L616.99 564.03C621.24 457.97 623.6 399.04 624.07 387.26C624.94 365.48 611.93 345.53 591.64 337.54C584.59 334.77 566.95 327.83 538.74 316.73Z" id="bkdIkFC4K"></path><path d="M504.6 248.17C504.6 248.17 504.6 248.17 504.6 248.17C504.6 309.63 504.6 343.78 504.6 350.61C504.6 350.61 504.6 350.61 504.6 350.61C432.89 350.61 393.05 350.61 385.08 350.61C385.08 350.61 385.08 350.61 385.08 350.61C385.08 289.14 385.08 255 385.08 248.17C385.08 248.17 385.08 248.17 385.08 248.17C456.79 248.17 496.63 248.17 504.6 248.17Z" id="c1jvvNxxwR"></path><path d="M377.97 60.62C377.97 60.62 342.4 60.62 342.4 103.31C342.4 137.45 350.94 171.33 350.94 171.33C370.57 171.33 527.64 171.33 547.27 171.33C564.35 77.43 523.8 30.74 444.84 35.01C402.22 37.31 391.34 55.5 377.97 60.62Z" id="e3eqlade39"></path><path d="M377.97 60.62C377.97 60.62 342.4 60.62 342.4 103.31C342.4 137.45 350.94 171.33 350.94 171.33C353.78 171.33 368.01 171.33 393.62 171.33L393.62 136.1C385.27 95.85 380.06 70.69 377.97 60.62Z" id="c4SM0izVvE"></path><path d="M530.2 162.8C520.15 150.65 514.57 143.91 513.46 142.56C436.63 158.57 396.37 125.39 396.37 125.39C392.17 151.95 366.44 171.96 366.44 171.96C364.86 171.05 352.23 163.71 350.65 162.8C350.64 162.8 350.64 162.8 350.63 162.8C349.7 162.81 348.75 162.91 347.79 163.1C339.47 164.7 333.86 172.64 333.86 181.11C333.86 181.73 333.86 186.68 333.86 187.29C333.86 195.63 339.35 203.45 347.51 205.13C349.14 205.46 350.73 205.55 352.26 205.43C356.45 205.09 360.19 208.11 360.94 212.25C368.15 252.09 402.93 282.31 444.84 282.31C486.71 282.31 521.46 252.14 528.71 212.37C529.45 208.33 532.93 205.39 536.98 205.48C537.15 205.48 538.56 205.48 538.74 205.48C548.17 205.48 555.81 197.84 555.81 188.41C555.81 187.55 555.81 180.72 555.81 179.87C555.81 170.44 548.17 162.8 538.74 162.8C537.6 162.8 534.75 162.8 530.2 162.8Z" id="b5rbWw6l8m"></path><path d="M616.49 358.49C621.67 366.94 624.49 376.87 624.07 387.26C623.6 399.04 621.24 457.97 616.99 564.03L564.35 564.03C564.35 484.72 564.35 440.66 564.35 431.85C564.35 418.27 569.74 405.24 579.35 395.63C586.78 388.2 612.77 362.21 616.49 358.49Z" id="aEP2y5ShT"></path><path d="M426.89 351L418.31 564.03L469.79 564.03L461.21 351L426.89 351Z" id="agpySz5ru"></path><path d="M460.71 351L426.4 351L424.53 397.4L462.58 397.4L460.71 351Z" id="f1KGNuRf"></path><path d="M376.55 291.12L350.94 316.73C374.74 352.43 387.96 372.26 390.6 376.23C396.58 385.2 409.26 386.45 416.88 378.83C418.75 376.97 428.06 367.65 444.84 350.88L376.55 291.12Z" id="c3nqXlAC8M"></path><path d="M513.13 291.12L538.74 316.73C514.94 352.43 501.71 372.26 499.07 376.23C493.09 385.2 480.41 386.45 472.79 378.83C470.93 376.97 461.61 367.65 444.84 350.88L513.13 291.12Z" id="h2zpLyo2C8"></path><path d="M393.62 196.94C393.62 190.82 393.62 141.79 393.62 135.66C385.72 156.94 366.44 171.97 366.44 171.97C364.86 171.05 352.23 163.71 350.65 162.8C350.64 162.8 350.64 162.8 350.63 162.8C349.7 162.82 348.75 162.92 347.79 163.1C339.47 164.7 333.87 172.65 333.87 181.11C333.87 181.73 333.87 186.68 333.87 187.3C333.87 195.64 339.35 203.45 347.51 205.13C349.14 205.46 350.73 205.55 352.26 205.43C356.45 205.09 360.19 208.11 360.94 212.26C368.15 252.09 402.93 282.31 444.84 282.31C450.64 282.31 456.29 281.68 461.76 280.57C422.87 272.61 393.62 238.19 393.62 196.94Z" id="dY9ZKaTOx"></path><path d="M247.29 367.68L93.55 367.68C65.92 379.74 50.57 386.45 47.49 387.79C28.11 396.25 15.92 415.76 16.81 436.9C17.17 445.37 18.97 487.75 22.2 564.03L318.64 564.03C321.87 487.75 323.67 445.37 324.03 436.9C324.93 415.76 312.74 396.25 293.35 387.79C287.21 385.11 271.86 378.4 247.29 367.68Z" id="aSSV51mSH"></path><path d="M213.1 307.92C213.1 307.92 213.1 307.92 213.1 307.92C213.1 359.14 213.1 387.6 213.1 393.29C213.1 393.29 213.1 393.29 213.1 393.29C161.88 393.29 133.43 393.29 127.74 393.29C127.74 393.29 127.74 393.29 127.74 393.29C127.74 342.07 127.74 313.61 127.74 307.92C127.74 307.92 127.74 307.92 127.74 307.92C178.95 307.92 207.41 307.92 213.1 307.92Z" id="a2mYuQxN4S"></path><path d="M170.42 34.74C142.13 34.74 119.2 57.68 119.2 85.96C119.2 114.25 142.13 137.19 170.42 137.19C198.71 137.19 221.64 114.25 221.64 85.96C221.64 57.68 198.71 34.74 170.42 34.74Z" id="gtk40ue8K"></path><path d="M272.85 175.6C272.85 229.82 226.99 273.77 170.42 273.77C113.85 273.77 67.98 229.82 67.98 175.6C67.98 121.38 113.85 77.43 170.42 77.43C226.99 77.43 272.85 121.38 272.85 175.6Z" id="e1jexvnkc7"></path><path d="M97.83 106.34C79.39 124.1 67.99 148.57 67.99 175.6C67.99 194.12 73.35 211.41 82.66 226.16C86.24 223.65 104.11 211.06 136.28 188.41C110.11 146.02 97.3 118.66 97.83 106.34Z" id="d26bV8bAf2"></path><path d="M262.86 205.48C258.33 205.48 253.99 203.68 250.78 200.48C249.61 199.59 240.2 192.46 239.03 191.57C239.03 191.57 178.59 204.23 123.87 167.88C118.56 183.4 109.17 195.24 92.42 210.76C90.8 210.24 77.85 206.01 76.23 205.48C76.23 205.48 76.22 205.48 76.22 205.48C75.28 205.5 74.33 205.6 73.35 205.79C65.05 207.39 59.45 215.34 59.45 223.8C59.45 224.42 59.45 229.37 59.45 229.98C59.45 238.32 64.93 246.13 73.09 247.81C74.73 248.15 76.32 248.24 77.85 248.11C82.04 247.77 85.77 250.79 86.52 254.93C93.73 294.77 128.51 325 170.42 325C212.26 325 246.98 294.88 254.28 255.16C255.05 250.98 258.77 247.76 263 248.15C264.79 248.31 266.65 248.19 268.55 247.74C276.51 245.85 281.69 238.05 281.49 229.88C281.39 226 281.39 222.21 281.39 222.21C281.39 214.17 275.39 208.32 267.75 205.84C267.07 205.61 263.84 205.55 262.86 205.48Z" id="c3kukcjtc"></path><path d="M31.48 399C21.78 408.91 16.2 422.48 16.81 436.9C17.17 445.37 18.97 487.75 22.2 564.03L76.52 564.03C76.52 510.42 76.52 480.64 76.52 474.69C76.52 460.71 71.62 447.17 62.67 436.43C56.43 428.94 34.6 402.74 31.48 399Z" id="a1T6PeCwCQ"></path><path d="M309.36 399C319.06 408.91 324.64 422.48 324.03 436.9C323.67 445.37 321.88 487.75 318.64 564.03L264.32 564.03C264.32 510.42 264.32 480.64 264.32 474.69C264.32 460.71 269.22 447.17 278.17 436.43C284.41 428.94 306.24 402.74 309.36 399Z" id="d95yFC0T6"></path><path d="M119.2 178.67C113.54 189.38 105.09 199.02 92.42 210.76C90.8 210.24 77.85 206.01 76.23 205.48C76.23 205.48 76.22 205.48 76.22 205.48C75.28 205.5 74.33 205.6 73.35 205.79C65.05 207.39 59.45 215.34 59.45 223.8C59.45 224.42 59.45 229.36 59.45 229.98C59.45 238.32 64.93 246.13 73.09 247.81C74.73 248.15 76.32 248.24 77.85 248.11C82.04 247.77 85.78 250.79 86.53 254.93C93.73 294.77 128.51 325 170.42 325C176.23 325 181.87 324.36 187.35 323.26C148.46 315.29 119.2 280.88 119.2 239.63C119.2 227.44 119.2 184.76 119.2 178.67Z" id="d2PqU6tcpe"></path><path d="M116.55 340.96L90.82 366.7C109.86 397.61 120.45 414.79 122.56 418.23C125.32 422.71 131.43 423.67 135.44 420.25C137.61 418.4 148.47 409.13 168.03 392.44L116.55 340.96Z" id="c16BJx6poI"></path><path d="M219.51 340.96L245.24 366.7C226.2 397.61 215.61 414.79 213.5 418.23C210.74 422.71 204.63 423.67 200.63 420.25C198.45 418.4 187.59 409.13 168.03 392.44L219.51 340.96Z" id="a2KDUvmf1"></path><path d="M358.38 429.23C353.31 429.23 349.21 433.33 349.21 438.4C349.21 443.46 353.31 447.57 358.38 447.57C361.81 447.57 389.26 447.57 392.69 447.57C397.76 447.57 401.86 443.46 401.86 438.4C401.86 433.33 397.76 429.23 392.69 429.23C385.83 429.23 361.81 429.23 358.38 429.23Z" id="brIongB0D"></path><path d="M544.75 311.79C529.47 296.51 520.98 288.03 519.29 286.33C517.65 284.69 515.54 283.81 513.39 283.67C513.39 281.64 513.39 265.44 513.39 263.41C525.39 250.62 533.93 234.41 537.38 216.16C539.52 216.26 541.68 216.08 543.81 215.65C556.01 213.15 564.87 201.83 564.87 188.73C564.87 188.06 564.87 182.71 564.87 182.04C564.87 174.47 561.8 167.51 556.79 162.54C564.89 118.5 558.22 82.6 537.42 58.58C517.3 35.35 484.88 24.24 443.67 26.47C405.61 28.53 381.03 46.04 373.24 52.45C368.98 52.96 361.72 54.45 354.37 58.86C344.19 64.98 332.05 77.81 332.05 104.26C332.05 127.34 335.74 146.61 338.41 157.54C329.46 161.9 323.47 171.34 323.47 182.15C323.47 182.81 323.47 188.07 323.47 188.73C323.47 201.83 332.33 213.15 344.53 215.65C346.66 216.08 348.82 216.26 350.96 216.16C354.4 234.41 362.95 250.61 374.94 263.41C374.94 265.44 374.94 281.64 374.94 283.67C372.79 283.81 370.69 284.69 369.05 286.33C367.35 288.02 358.87 296.51 343.59 311.79C313.63 323.35 296.99 329.77 293.66 331.05C289.34 332.72 285.21 334.88 281.39 337.47C277.21 340.32 276.12 346.02 278.96 350.21C280.74 352.82 283.62 354.23 286.55 354.23C288.33 354.23 290.12 353.71 291.7 352.64C294.36 350.83 297.24 349.33 300.26 348.16C303.35 346.97 318.79 341.01 346.6 330.28C367.86 362.18 379.67 379.89 382.03 383.44C386.42 390.03 393.46 394.25 401.34 395.03C402.22 395.12 403.1 395.16 403.97 395.16C408.53 395.16 412.96 393.96 416.87 391.75C416.11 409 410.03 546.99 409.27 564.24C409.05 569.3 412.97 573.58 418.03 573.8C418.16 573.81 418.3 573.81 418.44 573.81C423.32 573.81 427.38 569.97 427.59 565.04C428.06 554.37 430.42 501 434.65 404.94L453.69 404.94C457.92 501 460.27 554.37 460.74 565.04C460.96 569.97 465.02 573.81 469.9 573.81C470.03 573.81 470.17 573.81 470.31 573.8C475.37 573.58 479.29 569.3 479.07 564.24C478.31 546.99 472.22 409 471.46 391.75C475.38 393.96 479.81 395.16 484.37 395.16C485.24 395.16 486.12 395.12 486.99 395.03C494.87 394.25 501.91 390.03 506.3 383.44C508.67 379.89 520.48 362.18 541.74 330.28C569.54 341.01 584.99 346.97 588.08 348.16C594.58 350.67 600.17 354.67 604.57 359.66C601.4 362.83 576.04 388.19 572.87 391.36C561.41 402.82 555.11 418.05 555.11 434.25C555.11 447.29 555.11 551.6 555.11 564.64C555.11 569.71 559.21 573.81 564.28 573.81C569.34 573.81 573.45 569.71 573.45 564.64C573.45 551.6 573.45 447.29 573.45 434.25C573.45 422.95 577.85 412.32 585.84 404.33C588.62 401.55 610.88 379.29 613.66 376.51C614.78 380.61 615.3 384.92 615.12 389.32C614.41 406.82 608.73 546.78 608.02 564.27C607.82 569.33 611.75 573.6 616.81 573.81C616.94 573.81 617.06 573.81 617.19 573.81C622.08 573.81 626.15 569.95 626.35 565.02C627.06 547.52 632.74 407.56 633.45 390.06C634.49 364.11 618.91 340.4 594.68 331.05C588.02 328.48 571.38 322.06 544.75 311.79ZM393.28 296.16C393.28 285.63 393.28 279.78 393.28 278.61C408.08 288.02 425.58 293.4 444.17 293.4C462.75 293.4 480.26 288.02 495.05 278.61C495.05 279.78 495.05 285.63 495.05 296.16L444.17 340.68L393.28 296.16ZM348.21 197.68C344.56 196.93 341.81 193.09 341.81 188.73C341.81 188.07 341.81 182.8 341.81 182.15C341.81 177.89 344.65 174.06 348.28 173.42C351.34 172.89 354.27 174.01 356.13 176.43C357.81 178.62 360.06 180.19 362.62 180.97C366.38 182.1 370.52 181.43 373.7 179.19C379.44 175.14 384.5 170.19 388.74 164.49C391.76 160.42 390.92 154.68 386.85 151.66C382.79 148.63 377.05 149.48 374.02 153.54C371.91 156.39 369.51 158.97 366.88 161.26C363.98 158.77 360.58 156.97 356.94 155.95C354.58 146.92 350.39 127.58 350.39 104.26C350.39 90.22 354.72 80.35 363.26 74.93C369.92 70.7 376.97 70.53 376.96 70.53C379.31 70.53 381.59 69.61 383.29 68C383.52 67.79 406.06 46.87 444.66 44.78C480 42.87 507.28 51.8 523.55 70.59C539.95 89.53 545.41 118.6 539.49 155C537.03 154.91 534.34 155.1 531.67 155.54C530.81 153.48 523.91 136.92 523.05 134.85C521.29 130.63 516.69 128.35 512.27 129.51C511.41 129.73 426.73 151.2 391.22 106.99C388.05 103.04 382.28 102.41 378.33 105.58C374.38 108.75 373.75 114.52 376.93 118.47C413.19 163.62 485.13 153.8 509.08 149.01C509.75 150.61 515.08 163.41 515.74 165.01C518.61 171.89 525.94 175.64 533.16 173.94C536.13 173.24 538.96 173.23 540.02 173.44C543.73 174.17 546.53 177.87 546.53 182.04C546.53 182.71 546.53 188.06 546.53 188.73C546.53 193.09 543.78 196.93 540.13 197.68C539.41 197.83 538.69 197.88 538 197.82C529.2 197.18 521.05 203.57 519.43 212.38C512.76 248.7 481.11 275.06 444.17 275.06C407.23 275.06 375.58 248.7 368.91 212.38C367.29 203.57 359.14 197.17 350.34 197.83C349.64 197.88 348.93 197.83 348.21 197.68ZM397.29 373.27C394.91 369.7 383.02 351.85 361.6 319.72L375.95 305.36L430.75 353.32C418.05 366.02 411 373.07 409.59 374.48C407.26 376.81 404.56 376.92 403.15 376.78C401.75 376.65 399.12 376 397.29 373.27ZM436.01 373.99L444.17 365.84L452.32 373.99L452.88 386.6L435.46 386.6L435.46 386.6L436.01 373.99ZM485.19 376.78C483.78 376.92 481.08 376.81 478.75 374.48C477.34 373.07 470.28 366.02 457.58 353.32L512.38 305.36L526.74 319.72L491.05 373.27C488.07 375.52 486.12 376.69 485.19 376.78Z" id="e2Al1R2KLg"></path><path d="M253.53 359.57C238.84 344.88 230.68 336.72 229.05 335.09C227.41 333.45 225.3 332.57 223.16 332.43C223.16 330.99 223.16 319.45 223.16 318C244.08 304.26 259.38 282.39 264.3 256.34C266.71 256.45 269.14 256.21 271.54 255.65C283.27 252.87 291.79 241.63 291.79 228.91C291.79 228.24 291.79 222.89 291.79 222.22C291.79 212.93 287.18 204.58 280.04 199.67C282.14 191.35 283.21 182.84 283.21 174.27C283.21 136.27 262.67 102.81 231.72 83.6C231.39 51.89 204.33 26.19 171.09 26.19C137.85 26.19 110.79 51.89 110.46 83.6C79.51 102.81 58.97 136.28 58.97 174.27C58.97 182.81 60.04 191.3 62.12 199.6C54.99 204.48 50.39 212.88 50.39 222.32C50.39 222.98 50.39 228.25 50.39 228.91C50.39 241.63 58.91 252.87 70.64 255.65C73.04 256.22 75.47 256.45 77.88 256.34C82.8 282.39 98.11 304.26 119.03 318C119.03 319.45 119.03 330.99 119.03 332.43C116.88 332.57 114.77 333.45 113.13 335.09C111.5 336.72 103.34 344.88 88.66 359.57C61.79 371.29 46.87 377.81 43.88 379.11C21.1 389.06 6.5 412.43 7.55 437.26C8.09 450.04 12.43 552.25 12.97 565.03C13.18 569.96 17.24 573.81 22.12 573.81C22.25 573.81 22.39 573.81 22.52 573.81C27.58 573.59 31.51 569.32 31.29 564.25C30.75 551.48 26.42 449.26 25.88 436.49C25.53 428.25 27.67 420.26 31.69 413.39C34.1 416.28 53.35 439.38 55.76 442.27C63.36 451.4 67.55 462.97 67.55 474.85C67.55 483.83 67.55 555.66 67.55 564.64C67.55 569.71 71.66 573.81 76.72 573.81C81.79 573.81 85.89 569.71 85.89 564.64C85.89 555.66 85.89 483.83 85.89 474.85C85.89 458.69 80.19 442.95 69.85 430.53C67.29 427.46 46.82 402.9 44.26 399.83C46.44 398.33 48.75 397 51.22 395.92C53.82 394.78 66.83 389.11 90.24 378.88C106.79 405.74 115.98 420.66 117.82 423.65C120.54 428.07 125.04 431.07 130.17 431.87C131.09 432.02 132.02 432.09 132.94 432.09C137.13 432.09 141.21 430.6 144.45 427.84C145.61 426.85 151.44 421.88 161.92 412.93C161.92 503.96 161.92 554.53 161.92 564.64C161.92 569.71 166.03 573.81 171.09 573.81C176.16 573.81 180.26 569.71 180.26 564.64C180.26 554.53 180.26 503.96 180.26 412.93C190.75 421.88 196.57 426.85 197.74 427.84C200.97 430.61 205.06 432.09 209.25 432.09C210.17 432.09 211.1 432.02 212.02 431.87C217.15 431.07 221.65 428.07 224.37 423.65C226.21 420.67 235.4 405.74 251.95 378.89C275.36 389.11 288.37 394.79 290.97 395.92C293.44 397 295.75 398.33 297.93 399.83C295.37 402.9 274.9 427.46 272.34 430.53C261.99 442.95 256.3 458.69 256.3 474.85C256.3 483.83 256.3 555.67 256.3 564.64C256.3 569.71 260.4 573.82 265.47 573.82C270.53 573.82 274.64 569.71 274.64 564.64C274.64 555.67 274.64 483.83 274.64 474.85C274.64 462.97 278.82 451.4 286.43 442.27C288.84 439.39 308.09 416.28 310.5 413.39C314.52 420.27 316.66 428.25 316.31 436.49C315.77 449.26 311.44 551.48 310.9 564.26C310.68 569.32 314.61 573.59 319.67 573.81C319.8 573.81 319.93 573.81 320.06 573.81C324.95 573.81 329.01 569.96 329.22 565.03C329.76 552.26 334.09 450.04 334.63 437.26C335.69 412.43 321.09 389.06 298.3 379.11C292.33 376.51 277.41 369.99 253.53 359.57ZM211.93 73.84C199.27 69.06 185.49 66.43 171.09 66.43C156.69 66.43 142.92 69.06 130.26 73.84C135.12 56.97 151.58 44.53 171.09 44.53C190.6 44.53 207.06 56.97 211.93 73.84ZM77.26 238C76.48 238.06 75.68 237.99 74.87 237.8C71.37 236.97 68.73 233.15 68.73 228.91C68.73 228.25 68.73 222.98 68.73 222.32C68.73 218.07 71.58 214.24 75.2 213.6C78.27 213.06 81.2 214.19 83.05 216.61C84.73 218.8 86.98 220.37 89.55 221.15C93.3 222.28 97.44 221.62 100.63 219.37C106.27 215.38 111.27 210.52 115.47 204.93C118.51 200.88 117.69 195.13 113.64 192.09C109.59 189.05 103.84 189.86 100.8 193.91C98.72 196.68 96.38 199.2 93.81 201.44C89.88 198.08 85.07 195.98 79.97 195.34C78.21 188.44 77.31 181.37 77.31 174.27C77.31 124.92 119.38 84.77 171.09 84.77C222.8 84.77 264.87 124.92 264.87 174.27C264.87 181.36 263.98 188.41 262.23 195.3C259.81 195.5 257.36 195.89 255.09 196.48C254.4 195.91 248.89 191.38 248.2 190.81C244.73 187.96 240.37 186.54 235.96 186.8C222.48 187.6 153.45 189.42 118.04 147.03C114.79 143.15 109.01 142.63 105.12 145.88C101.23 149.12 100.72 154.91 103.97 158.79C121.43 179.7 147.05 193.83 180.11 200.81C205.42 206.15 227.92 205.63 236.73 205.13C237.81 206.01 246.41 213.09 247.49 213.97C250.45 216.41 254.6 216.75 257.91 214.82C259.47 213.97 264.68 213.16 266.95 213.62C270.66 214.35 273.45 218.05 273.45 222.22C273.45 222.89 273.45 228.24 273.45 228.91C273.45 233.15 270.82 236.97 267.32 237.8C266.51 237.99 265.7 238.06 264.92 238C256.14 237.37 247.97 243.75 246.35 252.56C239.68 288.88 208.03 315.24 171.09 315.24C134.16 315.24 102.5 288.88 95.83 252.56C94.22 243.75 86.05 237.35 77.26 238ZM204.82 327.38C204.82 328.65 204.82 334.97 204.82 346.35L171.09 380.08L137.37 346.35C137.37 334.97 137.37 328.64 137.37 327.38C147.9 331.39 159.27 333.58 171.09 333.58C182.91 333.58 194.29 331.39 204.82 327.38ZM105.49 368.67L119.62 354.54L157.59 392.52L133.07 413.44L105.49 368.67ZM184.59 392.52L222.57 354.54L236.7 368.67L209.12 413.44L184.59 392.52Z" id="g5sKXy3L67"></path><path d="M111.04 469.68C105.98 469.68 101.87 473.78 101.87 478.85C101.87 483.91 105.98 488.02 111.04 488.02C113.61 488.02 134.2 488.02 136.78 488.02C141.84 488.02 145.95 483.91 145.95 478.85C145.95 473.78 141.84 469.68 136.78 469.68C131.63 469.68 113.61 469.68 111.04 469.68Z" id="alYcY7tRa"></path></defs><g><g><g><g><use xlink:href="#bkdIkFC4K" opacity="1" fill="#eeeeee" fill-opacity="1"></use><g><use xlink:href="#bkdIkFC4K" opacity="1" fill-opacity="0" stroke="#000000" stroke-width="1" stroke-opacity="0"></use></g></g><g><use xlink:href="#c1jvvNxxwR" opacity="1" fill="#b48764" fill-opacity="1"></use><g><use xlink:href="#c1jvvNxxwR" opacity="1" fill-opacity="0" stroke="#000000" stroke-width="1" stroke-opacity="0"></use></g></g><g><use xlink:href="#e3eqlade39" opacity="1" fill="#5c414b" fill-opacity="1"></use><g><use xlink:href="#e3eqlade39" opacity="1" fill-opacity="0" stroke="#000000" stroke-width="1" stroke-opacity="0"></use></g></g><g><use xlink:href="#c4SM0izVvE" opacity="1" fill="#503441" fill-opacity="1"></use><g><use xlink:href="#c4SM0izVvE" opacity="1" fill-opacity="0" stroke="#000000" stroke-width="1" stroke-opacity="0"></use></g></g><g><use xlink:href="#b5rbWw6l8m" opacity="1" fill="#c39772" fill-opacity="1"></use><g><use xlink:href="#b5rbWw6l8m" opacity="1" fill-opacity="0" stroke="#000000" stroke-width="1" stroke-opacity="0"></use></g></g><g><use xlink:href="#aEP2y5ShT" opacity="1" fill="#edebed" fill-opacity="1"></use><g><use xlink:href="#aEP2y5ShT" opacity="1" fill-opacity="0" stroke="#000000" stroke-width="1" stroke-opacity="0"></use></g></g><g><use xlink:href="#agpySz5ru" opacity="1" fill="#04d9b2" fill-opacity="1"></use><g><use xlink:href="#agpySz5ru" opacity="1" fill-opacity="0" stroke="#000000" stroke-width="1" stroke-opacity="0"></use></g></g><g><use xlink:href="#f1KGNuRf" opacity="1" fill="#04d9b2" fill-opacity="1"></use><g><use xlink:href="#f1KGNuRf" opacity="1" fill-opacity="0" stroke="#000000" stroke-width="1" stroke-opacity="0"></use></g></g><g><use xlink:href="#c3nqXlAC8M" opacity="1" fill="#eeeeee" fill-opacity="1"></use><g><use xlink:href="#c3nqXlAC8M" opacity="1" fill-opacity="0" stroke="#000000" stroke-width="1" stroke-opacity="0"></use></g></g><g><use xlink:href="#h2zpLyo2C8" opacity="1" fill="#eeeeee" fill-opacity="1"></use><g><use xlink:href="#h2zpLyo2C8" opacity="1" fill-opacity="0" stroke="#000000" stroke-width="1" stroke-opacity="0"></use></g></g><g><use xlink:href="#dY9ZKaTOx" opacity="1" fill="#b48764" fill-opacity="1"></use><g><use xlink:href="#dY9ZKaTOx" opacity="1" fill-opacity="0" stroke="#000000" stroke-width="1" stroke-opacity="0"></use></g></g><g><use xlink:href="#aSSV51mSH" opacity="1" fill="#037f8c" fill-opacity="1"></use><g><use xlink:href="#aSSV51mSH" opacity="1" fill-opacity="0" stroke="#000000" stroke-width="1" stroke-opacity="0"></use></g></g><g><use xlink:href="#a2mYuQxN4S" opacity="1" fill="#fad7a5" fill-opacity="1"></use><g><use xlink:href="#a2mYuQxN4S" opacity="1" fill-opacity="0" stroke="#000000" stroke-width="1" stroke-opacity="0"></use></g></g><g><use xlink:href="#gtk40ue8K" opacity="1" fill="#deaf73" fill-opacity="1"></use><g><use xlink:href="#gtk40ue8K" opacity="1" fill-opacity="0" stroke="#000000" stroke-width="1" stroke-opacity="0"></use></g></g><g><use xlink:href="#e1jexvnkc7" opacity="1" fill="#d59f63" fill-opacity="1"></use><g><use xlink:href="#e1jexvnkc7" opacity="1" fill-opacity="0" stroke="#000000" stroke-width="1" stroke-opacity="0"></use></g></g><g><use xlink:href="#d26bV8bAf2" opacity="1" fill="#cd915a" fill-opacity="1"></use><g><use xlink:href="#d26bV8bAf2" opacity="1" fill-opacity="0" stroke="#000000" stroke-width="1" stroke-opacity="0"></use></g></g><g><use xlink:href="#c3kukcjtc" opacity="1" fill="#ffe1b4" fill-opacity="1"></use><g><use xlink:href="#c3kukcjtc" opacity="1" fill-opacity="0" stroke="#000000" stroke-width="1" stroke-opacity="0"></use></g></g><g><use xlink:href="#a1T6PeCwCQ" opacity="1" fill="#037f8c" fill-opacity="1"></use><g><use xlink:href="#a1T6PeCwCQ" opacity="1" fill-opacity="0" stroke="#000000" stroke-width="1" stroke-opacity="0"></use></g></g><g><use xlink:href="#d95yFC0T6" opacity="1" fill="#037f8c" fill-opacity="1"></use><g><use xlink:href="#d95yFC0T6" opacity="1" fill-opacity="0" stroke="#000000" stroke-width="1" stroke-opacity="0"></use></g></g><g><use xlink:href="#d2PqU6tcpe" opacity="1" fill="#fad7a5" fill-opacity="1"></use><g><use xlink:href="#d2PqU6tcpe" opacity="1" fill-opacity="0" stroke="#000000" stroke-width="1" stroke-opacity="0"></use></g></g><g><use xlink:href="#c16BJx6poI" opacity="1" fill="#037f8c" fill-opacity="1"></use><g><use xlink:href="#c16BJx6poI" opacity="1" fill-opacity="0" stroke="#000000" stroke-width="1" stroke-opacity="0"></use></g></g><g><use xlink:href="#a2KDUvmf1" opacity="1" fill="#037f8c" fill-opacity="1"></use><g><use xlink:href="#a2KDUvmf1" opacity="1" fill-opacity="0" stroke="#000000" stroke-width="1" stroke-opacity="0"></use></g></g><g><use xlink:href="#brIongB0D" opacity="1" fill="#000000" fill-opacity="1"></use><g><use xlink:href="#brIongB0D" opacity="1" fill-opacity="0" stroke="#000000" stroke-width="1" stroke-opacity="0"></use></g></g><g><use xlink:href="#e2Al1R2KLg" opacity="1" fill="#000000" fill-opacity="1"></use><g><use xlink:href="#e2Al1R2KLg" opacity="1" fill-opacity="0" stroke="#000000" stroke-width="1" stroke-opacity="0"></use></g></g><g><use xlink:href="#g5sKXy3L67" opacity="1" fill="#000000" fill-opacity="1"></use><g><use xlink:href="#g5sKXy3L67" opacity="1" fill-opacity="0" stroke="#000000" stroke-width="1" stroke-opacity="0"></use></g></g><g><use xlink:href="#alYcY7tRa" opacity="1" fill="#000000" fill-opacity="1"></use><g><use xlink:href="#alYcY7tRa" opacity="1" fill-opacity="0" stroke="#000000" stroke-width="1" stroke-opacity="0"></use></g></g></g></g></g></svg>