<?xml version="1.0" encoding="UTF-8" standalone="no"?>
<!DOCTYPE svg PUBLIC "-//W3C//DTD SVG 1.1//EN" "http://www.w3.org/Graphics/SVG/1.1/DTD/svg11.dtd">
<svg version="1.1" xmlns="http://www.w3.org/2000/svg" xmlns:xlink="http://www.w3.org/1999/xlink" preserveAspectRatio="xMidYMid meet" viewBox="0 0 639 573" width="299" height="268.12"><defs><path d="M535.65 297.19L349.65 297.19C318.21 309.56 300.74 316.43 297.25 317.8C277.15 325.71 264.27 345.46 265.13 367.04C265.6 378.71 267.94 437.06 272.14 542.1L613.15 542.1C617.36 437.06 619.69 378.71 620.16 367.04C621.02 345.46 608.14 325.71 588.05 317.8C581.06 315.05 563.59 308.18 535.65 297.19Z" id="abmrsr8X"></path><path d="M501.83 229.29C501.83 229.29 501.83 229.29 501.83 229.29C501.83 290.16 501.83 323.98 501.83 330.74C501.83 330.74 501.83 330.74 501.83 330.74C430.81 330.74 391.35 330.74 383.46 330.74C383.46 330.74 383.46 330.74 383.46 330.74C383.46 269.87 383.46 236.05 383.46 229.29C383.46 229.29 383.46 229.29 383.46 229.29C454.48 229.29 493.94 229.29 501.83 229.29Z" id="gSgTVwld1"></path><path d="M376.42 43.55C376.42 43.55 341.19 43.55 341.19 85.82C341.19 119.64 349.65 153.19 349.65 153.19C369.09 153.19 524.66 153.19 544.1 153.19C561.01 60.19 520.85 13.96 442.65 18.18C400.43 20.47 389.66 38.48 376.42 43.55Z" id="c2hev9bvw"></path><path d="M376.42 43.55C376.42 43.55 341.19 43.55 341.19 85.82C341.19 119.64 349.65 153.19 349.65 153.19C352.46 153.19 366.56 153.19 391.92 153.19L391.92 118.3C383.65 78.43 378.49 53.52 376.42 43.55Z" id="c1FBXzXkqk"></path><path d="M527.19 144.74C517.24 132.71 511.71 126.03 510.61 124.7C434.52 140.55 394.64 107.69 394.64 107.69C390.48 134 365 153.82 365 153.82C363.44 152.91 350.92 145.65 349.36 144.74C349.35 144.74 349.35 144.74 349.35 144.74C348.42 144.76 347.48 144.85 346.52 145.04C338.29 146.62 332.74 154.49 332.74 162.88C332.74 163.49 332.74 168.39 332.74 169C332.74 177.26 338.17 185 346.26 186.66C347.87 186.99 349.44 187.08 350.95 186.96C355.11 186.62 358.81 189.61 359.55 193.72C366.69 233.17 401.14 263.1 442.65 263.1C484.11 263.1 518.53 233.22 525.72 193.83C526.45 189.84 529.9 186.93 533.9 187.01C534.08 187.01 535.47 187.01 535.65 187.01C544.98 187.01 552.56 179.44 552.56 170.1C552.56 169.26 552.56 162.49 552.56 161.65C552.56 152.31 544.98 144.74 535.65 144.74C534.52 144.74 531.7 144.74 527.19 144.74Z" id="d1pw684G4M"></path><path d="M612.65 338.55C617.78 346.92 620.57 356.75 620.16 367.04C619.69 378.71 617.36 437.06 613.15 542.1L561.01 542.1C561.01 463.56 561.01 419.93 561.01 411.2C561.01 397.74 566.35 384.84 575.87 375.33C583.22 367.97 608.97 342.22 612.65 338.55Z" id="b1gM0c90zR"></path><path d="M424.38 331.13L415.88 542.1L466.87 542.1L458.37 331.13L424.38 331.13Z" id="dlg7VXfTr"></path><path d="M458.37 331.13L424.38 331.13L422.53 377.08L460.22 377.08L458.37 331.13Z" id="bzpJjNBhC"></path><path d="M375.01 271.82L349.65 297.19C373.22 332.54 386.31 352.19 388.93 356.12C394.85 364.99 407.41 366.24 414.96 358.69C416.8 356.85 426.03 347.62 442.65 331L375.01 271.82Z" id="bENOsopEz"></path><path d="M510.28 271.82L535.64 297.19C512.07 332.54 498.98 352.19 496.36 356.12C490.44 364.99 477.88 366.24 470.33 358.69C468.49 356.85 459.26 347.62 442.65 331L510.28 271.82Z" id="kaLe3mugr"></path><path d="M391.92 178.56C391.92 172.49 391.92 123.93 391.92 117.86C384.1 138.94 365 153.82 365 153.82C363.44 152.91 350.92 145.65 349.36 144.74C349.35 144.74 349.35 144.74 349.35 144.74C348.42 144.76 347.48 144.86 346.52 145.04C338.29 146.62 332.74 154.49 332.74 162.88C332.74 163.49 332.74 168.39 332.74 169C332.74 177.26 338.17 185 346.26 186.66C347.87 186.99 349.44 187.08 350.95 186.96C355.11 186.63 358.81 189.62 359.55 193.72C366.7 233.17 401.14 263.1 442.65 263.1C448.39 263.1 453.99 262.48 459.41 261.38C420.89 253.49 391.92 219.41 391.92 178.56Z" id="bRvUMWgoh"></path><path d="M247 347.65L94.72 347.65C67.36 359.59 52.15 366.23 49.11 367.56C29.91 375.94 17.84 395.27 18.72 416.2C19.08 424.59 20.86 466.56 24.06 542.1L317.66 542.1C320.86 466.56 322.64 424.59 323 416.2C323.88 395.27 311.81 375.94 292.61 367.56C286.53 364.9 271.32 358.27 247 347.65Z" id="gbQIIBWWLJ"></path><path d="M213.13 288.47C213.13 288.47 213.13 288.47 213.13 288.47C213.13 339.19 213.13 367.38 213.13 373.01C213.13 373.01 213.13 373.01 213.13 373.01C162.4 373.01 134.22 373.01 128.58 373.01C128.58 373.01 128.58 373.01 128.58 373.01C128.58 322.28 128.58 294.1 128.58 288.47C128.58 288.47 128.58 288.47 128.58 288.47C179.31 288.47 207.49 288.47 213.13 288.47Z" id="acE1D2lMk"></path><path d="M170.86 17.92C142.84 17.92 120.13 40.63 120.13 68.65C120.13 96.66 142.84 119.38 170.86 119.38C198.87 119.38 221.59 96.66 221.59 68.65C221.59 40.63 198.87 17.92 170.86 17.92Z" id="afMFkkeap"></path><path d="M272.31 157.42C272.31 211.11 226.89 254.64 170.86 254.64C114.83 254.64 69.4 211.11 69.4 157.42C69.4 103.72 114.83 60.19 170.86 60.19C226.89 60.19 272.31 103.72 272.31 157.42Z" id="dofUpKgCY"></path><path d="M98.97 88.83C80.7 106.41 69.41 130.65 69.41 157.42C69.41 175.76 74.72 192.88 83.94 207.49C87.48 205 105.18 192.54 137.04 170.1C111.13 128.12 98.43 101.03 98.97 88.83Z" id="f7AxdOp4jP"></path><path d="M262.41 187.01C257.92 187.01 253.62 185.23 250.45 182.06C249.29 181.18 239.97 174.12 238.81 173.23C238.81 173.23 178.95 185.77 124.75 149.77C119.49 165.14 110.19 176.87 93.61 192.24C92 191.72 79.18 187.53 77.57 187.01C77.57 187.01 77.57 187.01 77.56 187.01C76.63 187.03 75.69 187.13 74.72 187.32C66.5 188.91 60.95 196.77 60.95 205.15C60.95 205.77 60.95 210.67 60.95 211.28C60.95 219.53 66.38 227.27 74.46 228.93C76.08 229.27 77.66 229.35 79.17 229.23C83.33 228.9 87.02 231.88 87.77 235.99C94.9 275.44 129.35 305.38 170.86 305.38C212.29 305.38 246.69 275.55 253.91 236.21C254.67 232.07 258.36 228.88 262.55 229.27C264.32 229.43 266.17 229.31 268.05 228.86C275.93 226.99 281.06 219.27 280.86 211.17C280.77 207.34 280.77 203.58 280.77 203.58C280.77 195.62 274.82 189.82 267.26 187.36C266.58 187.14 263.38 187.08 262.41 187.01Z" id="b16vPWtcRL"></path><path d="M33.25 378.66C23.65 388.48 18.12 401.92 18.72 416.2C19.08 424.59 20.86 466.56 24.06 542.1L77.86 542.1C77.86 489.01 77.86 459.52 77.86 453.62C77.86 439.78 73.01 426.37 64.14 415.73C57.96 408.32 36.34 382.37 33.25 378.66Z" id="a1gUcIwNhL"></path><path d="M308.47 378.66C318.07 388.48 323.6 401.92 323 416.2C322.64 424.59 320.86 466.56 317.66 542.1L263.86 542.1C263.86 489.01 263.86 459.52 263.86 453.62C263.86 439.78 268.71 426.37 277.58 415.73C283.76 408.32 305.38 382.37 308.47 378.66Z" id="a1KLznyG1v"></path><path d="M120.13 160.46C114.52 171.07 106.15 180.62 93.61 192.24C92.01 191.72 79.18 187.53 77.58 187.01C77.57 187.01 77.57 187.01 77.56 187.01C76.63 187.03 75.69 187.13 74.72 187.31C66.5 188.9 60.95 196.77 60.95 205.15C60.95 205.76 60.95 210.66 60.95 211.28C60.95 219.53 66.38 227.27 74.46 228.93C76.08 229.27 77.66 229.35 79.18 229.23C83.33 228.89 87.03 231.88 87.77 235.98C94.91 275.44 129.35 305.38 170.86 305.38C176.61 305.38 182.2 304.75 187.63 303.65C149.11 295.76 120.13 261.68 120.13 220.83C120.13 208.75 120.13 166.49 120.13 160.46Z" id="a1HgSH8LTF"></path><path d="M117.51 321.18L92.02 346.67C110.88 377.29 121.36 394.3 123.46 397.71C126.19 402.14 132.24 403.1 136.21 399.71C138.36 397.88 149.12 388.69 168.49 372.16L117.51 321.18Z" id="a1Xgqf9K0l"></path><path d="M219.47 321.18L244.96 346.67C226.1 377.29 215.62 394.3 213.52 397.71C210.79 402.14 204.74 403.1 200.77 399.71C198.62 397.88 187.86 388.69 168.49 372.16L219.47 321.18Z" id="apXT19rVW"></path><path d="M357.01 408.6C352 408.6 347.93 412.67 347.93 417.68C347.93 422.7 352 426.76 357.01 426.76C360.41 426.76 387.6 426.76 391 426.76C396.02 426.76 400.08 422.7 400.08 417.68C400.08 412.67 396.02 408.6 391 408.6C384.2 408.6 360.41 408.6 357.01 408.6Z" id="bfNNzzZzT"></path><path d="M541.6 292.3C526.47 277.17 518.06 268.76 516.38 267.08C514.76 265.46 512.68 264.58 510.54 264.45C510.54 262.44 510.54 246.39 510.54 244.38C522.43 231.71 530.89 215.67 534.3 197.59C536.42 197.68 538.56 197.51 540.67 197.08C552.76 194.61 561.53 183.4 561.53 170.42C561.53 169.76 561.53 164.46 561.53 163.8C561.53 156.3 558.48 149.41 553.53 144.48C561.55 100.87 554.94 65.32 534.34 41.53C514.41 18.52 482.3 7.52 441.49 9.73C403.79 11.76 379.45 29.11 371.74 35.46C367.52 35.96 360.33 37.44 353.05 41.81C342.96 47.86 330.94 60.57 330.94 86.77C330.94 109.62 334.59 128.7 337.24 139.53C328.37 143.85 322.44 153.2 322.44 163.9C322.44 164.55 322.44 169.77 322.44 170.42C322.44 183.39 331.21 194.61 343.3 197.08C345.41 197.51 347.55 197.68 349.67 197.59C353.08 215.66 361.54 231.71 373.42 244.38C373.42 246.39 373.42 262.44 373.42 264.45C371.29 264.58 369.2 265.46 367.59 267.08C365.91 268.76 357.5 277.16 342.37 292.29C312.7 303.74 296.21 310.1 292.91 311.37C288.64 313.02 284.55 315.16 280.77 317.73C276.62 320.55 275.54 326.19 278.36 330.34C280.12 332.93 282.97 334.32 285.88 334.32C287.64 334.32 289.41 333.81 290.98 332.75C293.61 330.96 296.46 329.47 299.45 328.32C302.51 327.14 317.81 321.23 345.35 310.61C366.41 342.2 378.1 359.74 380.44 363.25C384.79 369.78 391.77 373.97 399.57 374.74C400.44 374.82 401.31 374.87 402.17 374.87C406.69 374.87 411.07 373.68 414.95 371.48C414.2 388.57 408.17 525.23 407.42 542.31C407.2 547.32 411.08 551.56 416.09 551.78C416.23 551.79 416.36 551.79 416.5 551.79C421.33 551.79 425.35 547.98 425.57 543.11C426.03 532.54 428.36 479.68 432.56 384.55L451.41 384.55C455.6 479.68 457.93 532.54 458.4 543.11C458.61 547.98 462.63 551.79 467.47 551.79C467.6 551.79 467.74 551.79 467.87 551.78C472.88 551.56 476.77 547.32 476.55 542.31C475.79 525.23 469.77 388.57 469.02 371.48C472.9 373.68 477.28 374.87 481.8 374.87C482.66 374.87 483.53 374.82 484.4 374.74C492.2 373.97 499.17 369.78 503.52 363.25C505.86 359.74 517.56 342.2 538.62 310.61C566.16 321.23 581.45 327.14 584.51 328.32C590.95 330.8 596.49 334.76 600.85 339.7C597.71 342.84 572.59 367.96 569.45 371.1C558.1 382.45 551.86 397.53 551.86 413.57C551.86 426.49 551.86 529.8 551.86 542.71C551.86 547.73 555.92 551.79 560.94 551.79C565.95 551.79 570.02 547.73 570.02 542.71C570.02 529.8 570.02 426.49 570.02 413.57C570.02 402.38 574.38 391.86 582.29 383.95C585.05 381.19 607.1 359.14 609.85 356.39C610.96 360.45 611.47 364.72 611.3 369.08C610.6 386.41 604.97 525.02 604.27 542.34C604.06 547.35 607.96 551.58 612.97 551.79C613.1 551.79 613.22 551.79 613.35 551.79C618.19 551.79 622.22 547.97 622.41 543.08C623.12 525.75 628.75 387.14 629.45 369.82C630.48 344.11 615.05 320.63 591.05 311.37C584.46 308.83 567.97 302.47 541.6 292.3ZM391.59 276.81C391.59 266.39 391.59 260.59 391.59 259.43C406.24 268.75 423.58 274.08 441.98 274.08C460.39 274.08 477.73 268.75 492.38 259.43C492.38 260.59 492.38 266.39 492.38 276.81L441.98 320.91L391.59 276.81ZM346.94 179.29C343.33 178.55 340.61 174.74 340.61 170.42C340.61 169.77 340.61 164.55 340.61 163.9C340.61 159.69 343.42 155.89 347.01 155.26C350.05 154.73 352.95 155.84 354.79 158.24C356.45 160.41 358.68 161.97 361.22 162.73C364.94 163.86 369.04 163.2 372.19 160.97C377.87 156.96 382.88 152.06 387.09 146.41C390.08 142.39 389.24 136.7 385.22 133.7C381.19 130.71 375.5 131.55 372.51 135.57C370.41 138.39 368.05 140.95 365.44 143.22C362.56 140.75 359.19 138.97 355.59 137.96C353.26 129.02 349.1 109.87 349.1 86.77C349.1 72.86 353.39 63.08 361.85 57.72C368.44 53.53 375.43 53.37 375.42 53.37C377.74 53.37 380 52.45 381.69 50.86C381.91 50.65 404.24 29.93 442.47 27.86C477.47 25.97 504.49 34.81 520.61 53.42C536.85 72.17 542.26 100.97 536.39 137.02C533.96 136.93 531.29 137.11 528.64 137.56C527.79 135.51 520.96 119.11 520.11 117.06C518.37 112.88 513.81 110.63 509.43 111.77C508.58 111.99 424.71 133.25 389.55 89.47C386.41 85.56 380.69 84.93 376.78 88.07C372.87 91.22 372.24 96.93 375.39 100.84C411.3 145.55 482.55 135.83 506.27 131.08C506.93 132.67 512.21 145.34 512.87 146.93C515.71 153.74 522.97 157.46 530.12 155.77C533.06 155.08 535.86 155.07 536.92 155.27C540.59 156.01 543.36 159.67 543.36 163.8C543.36 164.46 543.36 169.76 543.36 170.42C543.36 174.74 540.64 178.55 537.03 179.28C536.31 179.43 535.6 179.48 534.91 179.43C526.2 178.79 518.12 185.12 516.52 193.84C509.91 229.81 478.57 255.92 441.98 255.92C405.4 255.92 374.05 229.81 367.44 193.84C365.84 185.12 357.77 178.78 349.05 179.43C348.36 179.48 347.65 179.43 346.94 179.29ZM395.56 353.18C393.2 349.64 381.42 331.97 360.2 300.15L374.42 285.93L428.7 333.42C416.12 346 409.13 352.99 407.73 354.39C405.43 356.69 402.75 356.8 401.36 356.66C399.97 356.53 397.36 355.89 395.56 353.18ZM433.91 353.9L441.98 345.82L450.06 353.9L450.61 366.38L433.36 366.38L433.36 366.38L433.91 353.9ZM482.61 356.66C481.21 356.8 478.54 356.69 476.23 354.38C474.84 352.99 467.85 346 455.27 333.42L509.55 285.93L523.76 300.15L488.41 353.18C485.47 355.41 483.53 356.57 482.61 356.66Z" id="c16LPvfzgW"></path><path d="M253.17 339.61C238.62 325.07 230.54 316.98 228.93 315.37C227.3 313.74 225.22 312.87 223.09 312.74C223.09 311.31 223.09 299.88 223.09 298.45C243.81 284.83 258.97 263.18 263.84 237.38C266.23 237.49 268.64 237.26 271.01 236.7C282.63 233.95 291.06 222.81 291.06 210.21C291.06 209.55 291.06 204.26 291.06 203.59C291.06 194.39 286.5 186.12 279.43 181.26C281.51 173.02 282.57 164.59 282.57 156.1C282.57 118.47 262.23 85.33 231.57 66.3C231.24 34.9 204.44 9.44 171.52 9.44C138.61 9.44 111.8 34.9 111.47 66.3C80.82 85.33 60.48 118.47 60.48 156.1C60.48 164.56 61.53 172.97 63.6 181.19C56.53 186.02 51.98 194.33 51.98 203.69C51.98 204.34 51.98 209.56 51.98 210.21C51.98 222.81 60.42 233.95 72.04 236.7C74.41 237.26 76.82 237.49 79.21 237.38C84.08 263.18 99.24 284.83 119.96 298.45C119.96 299.88 119.96 311.31 119.96 312.74C117.83 312.87 115.74 313.74 114.12 315.37C112.5 316.98 104.42 325.07 89.88 339.61C63.27 351.22 48.49 357.68 45.53 358.97C22.97 368.82 8.51 391.96 9.55 416.56C10.09 429.21 14.38 530.44 14.92 543.09C15.12 547.97 19.14 551.79 23.98 551.79C24.11 551.79 24.24 551.79 24.37 551.78C29.39 551.57 33.28 547.34 33.06 542.33C32.53 529.67 28.24 428.44 27.7 415.79C27.35 407.64 29.47 399.72 33.46 392.92C35.84 395.78 54.91 418.66 57.3 421.52C64.83 430.56 68.98 442.02 68.98 453.78C68.98 462.68 68.98 533.82 68.98 542.71C68.98 547.73 73.04 551.79 78.06 551.79C83.07 551.79 87.14 547.73 87.14 542.71C87.14 533.82 87.14 462.68 87.14 453.78C87.14 437.78 81.5 422.19 71.25 409.89C68.72 406.85 48.44 382.52 45.91 379.48C48.06 378 50.35 376.68 52.8 375.61C55.38 374.49 68.26 368.87 91.45 358.74C107.83 385.34 116.94 400.12 118.76 403.08C121.46 407.45 125.91 410.42 130.99 411.22C131.91 411.36 132.82 411.43 133.73 411.43C137.89 411.43 141.93 409.96 145.14 407.23C146.29 406.24 152.06 401.32 162.44 392.46C162.44 482.61 162.44 532.69 162.44 542.71C162.44 547.73 166.51 551.79 171.53 551.79C176.54 551.79 180.61 547.73 180.61 542.71C180.61 532.69 180.61 482.61 180.61 392.46C190.99 401.32 196.76 406.24 197.91 407.23C201.12 409.97 205.16 411.44 209.32 411.44C210.23 411.44 211.14 411.37 212.06 411.22C217.14 410.42 221.59 407.46 224.29 403.08C226.11 400.12 235.22 385.34 251.6 358.74C274.79 368.87 287.68 374.49 290.25 375.62C292.7 376.68 294.99 378 297.14 379.48C294.61 382.52 274.34 406.85 271.8 409.89C261.55 422.19 255.91 437.78 255.91 453.78C255.91 462.68 255.91 533.82 255.91 542.71C255.91 547.73 259.98 551.79 264.99 551.79C270.01 551.79 274.07 547.73 274.07 542.71C274.07 533.82 274.07 462.68 274.07 453.78C274.07 442.02 278.22 430.56 285.76 421.52C288.14 418.66 307.21 395.78 309.59 392.92C313.58 399.73 315.7 407.64 315.35 415.79C314.81 428.44 310.52 529.67 309.99 542.33C309.78 547.34 313.67 551.57 318.68 551.79C318.81 551.79 318.94 551.79 319.07 551.79C323.91 551.79 327.93 547.98 328.14 543.1C328.67 530.44 332.96 429.21 333.5 416.56C334.54 391.96 320.08 368.82 297.52 358.97C291.6 356.39 276.82 349.93 253.17 339.61ZM211.97 56.64C199.43 51.9 185.79 49.3 171.52 49.3C157.26 49.3 143.62 51.9 131.08 56.64C135.9 39.93 152.2 27.61 171.52 27.61C190.85 27.61 207.15 39.93 211.97 56.64ZM78.59 219.22C77.82 219.28 77.03 219.21 76.22 219.02C72.76 218.2 70.15 214.41 70.15 210.21C70.15 209.56 70.15 204.34 70.15 203.69C70.15 199.48 72.96 195.68 76.56 195.05C79.59 194.52 82.49 195.63 84.33 198.03C85.99 200.2 88.22 201.76 90.76 202.53C94.48 203.65 98.58 202.99 101.73 200.76C107.33 196.82 112.27 192 116.43 186.46C119.44 182.45 118.63 176.76 114.62 173.75C110.61 170.74 104.92 171.55 101.91 175.56C99.85 178.3 97.53 180.79 94.98 183.01C91.09 179.68 86.33 177.6 81.27 176.97C79.53 170.13 78.64 163.14 78.64 156.1C78.64 107.23 120.31 67.47 171.52 67.47C222.74 67.47 264.41 107.23 264.41 156.1C264.41 163.12 263.52 170.1 261.79 176.93C259.4 177.12 256.97 177.51 254.72 178.1C254.04 177.54 248.57 173.05 247.89 172.48C244.46 169.66 240.14 168.25 235.77 168.51C222.42 169.3 154.05 171.1 118.98 129.13C115.76 125.28 110.04 124.76 106.19 127.98C102.34 131.2 101.82 136.92 105.04 140.77C122.34 161.48 147.71 175.48 180.45 182.38C205.52 187.67 227.8 187.16 236.54 186.66C237.6 187.54 246.12 194.54 247.19 195.42C250.12 197.83 254.23 198.17 257.51 196.26C259.05 195.42 264.21 194.62 266.46 195.07C270.14 195.8 272.9 199.46 272.9 203.59C272.9 204.26 272.9 209.55 272.9 210.21C272.9 214.42 270.29 218.2 266.83 219.02C266.03 219.21 265.23 219.28 264.46 219.22C255.76 218.59 247.67 224.91 246.06 233.63C239.46 269.61 208.11 295.71 171.53 295.71C134.94 295.71 103.59 269.61 96.99 233.64C95.38 224.91 87.3 218.58 78.59 219.22ZM204.93 307.74C204.93 308.99 204.93 315.25 204.93 326.52L171.52 359.93L138.12 326.52C138.12 315.25 138.12 308.99 138.12 307.73C148.55 311.7 159.82 313.88 171.52 313.88C183.23 313.88 194.5 311.7 204.93 307.74ZM106.55 348.63L120.54 334.63L158.15 372.24L133.87 392.97L106.55 348.63ZM184.9 372.24L222.51 334.63L236.5 348.63L209.18 392.97L184.9 372.24Z" id="bAQs6iHu2"></path><path d="M112.05 448.66C107.03 448.66 102.96 452.73 102.96 457.74C102.96 462.76 107.03 466.82 112.05 466.82C114.6 466.82 134.99 466.82 137.54 466.82C142.55 466.82 146.62 462.76 146.62 457.74C146.62 452.73 142.55 448.66 137.54 448.66C132.44 448.66 114.6 448.66 112.05 448.66Z" id="b1rxlg9aH"></path></defs><g><g><g><use xlink:href="#abmrsr8X" opacity="1" fill="#dbd9dc" fill-opacity="1"></use><g><use xlink:href="#abmrsr8X" opacity="1" fill-opacity="0" stroke="#000000" stroke-width="1" stroke-opacity="0"></use></g></g><g><use xlink:href="#gSgTVwld1" opacity="1" fill="#b48764" fill-opacity="1"></use><g><use xlink:href="#gSgTVwld1" opacity="1" fill-opacity="0" stroke="#000000" stroke-width="1" stroke-opacity="0"></use></g></g><g><use xlink:href="#c2hev9bvw" opacity="1" fill="#5c414b" fill-opacity="1"></use><g><use xlink:href="#c2hev9bvw" opacity="1" fill-opacity="0" stroke="#000000" stroke-width="1" stroke-opacity="0"></use></g></g><g><use xlink:href="#c1FBXzXkqk" opacity="1" fill="#503441" fill-opacity="1"></use><g><use xlink:href="#c1FBXzXkqk" opacity="1" fill-opacity="0" stroke="#000000" stroke-width="1" stroke-opacity="0"></use></g></g><g><use xlink:href="#d1pw684G4M" opacity="1" fill="#c39772" fill-opacity="1"></use><g><use xlink:href="#d1pw684G4M" opacity="1" fill-opacity="0" stroke="#000000" stroke-width="1" stroke-opacity="0"></use></g></g><g><use xlink:href="#b1gM0c90zR" opacity="1" fill="#edebed" fill-opacity="1"></use><g><use xlink:href="#b1gM0c90zR" opacity="1" fill-opacity="0" stroke="#000000" stroke-width="1" stroke-opacity="0"></use></g></g><g><use xlink:href="#dlg7VXfTr" opacity="1" fill="#04d9b2" fill-opacity="1"></use><g><use xlink:href="#dlg7VXfTr" opacity="1" fill-opacity="0" stroke="#000000" stroke-width="1" stroke-opacity="0"></use></g></g><g><use xlink:href="#bzpJjNBhC" opacity="1" fill="#04d9b2" fill-opacity="1"></use><g><use xlink:href="#bzpJjNBhC" opacity="1" fill-opacity="0" stroke="#000000" stroke-width="1" stroke-opacity="0"></use></g></g><g><use xlink:href="#bENOsopEz" opacity="1" fill="#edebed" fill-opacity="1"></use><g><use xlink:href="#bENOsopEz" opacity="1" fill-opacity="0" stroke="#000000" stroke-width="1" stroke-opacity="0"></use></g></g><g><use xlink:href="#kaLe3mugr" opacity="1" fill="#edebed" fill-opacity="1"></use><g><use xlink:href="#kaLe3mugr" opacity="1" fill-opacity="0" stroke="#000000" stroke-width="1" stroke-opacity="0"></use></g></g><g><use xlink:href="#bRvUMWgoh" opacity="1" fill="#b48764" fill-opacity="1"></use><g><use xlink:href="#bRvUMWgoh" opacity="1" fill-opacity="0" stroke="#000000" stroke-width="1" stroke-opacity="0"></use></g></g><g><use xlink:href="#gbQIIBWWLJ" opacity="1" fill="#5d5360" fill-opacity="1"></use><g><use xlink:href="#gbQIIBWWLJ" opacity="1" fill-opacity="0" stroke="#000000" stroke-width="1" stroke-opacity="0"></use></g></g><g><use xlink:href="#acE1D2lMk" opacity="1" fill="#fad7a5" fill-opacity="1"></use><g><use xlink:href="#acE1D2lMk" opacity="1" fill-opacity="0" stroke="#000000" stroke-width="1" stroke-opacity="0"></use></g></g><g><use xlink:href="#afMFkkeap" opacity="1" fill="#deaf73" fill-opacity="1"></use><g><use xlink:href="#afMFkkeap" opacity="1" fill-opacity="0" stroke="#000000" stroke-width="1" stroke-opacity="0"></use></g></g><g><use xlink:href="#dofUpKgCY" opacity="1" fill="#d59f63" fill-opacity="1"></use><g><use xlink:href="#dofUpKgCY" opacity="1" fill-opacity="0" stroke="#000000" stroke-width="1" stroke-opacity="0"></use></g></g><g><use xlink:href="#f7AxdOp4jP" opacity="1" fill="#cd915a" fill-opacity="1"></use><g><use xlink:href="#f7AxdOp4jP" opacity="1" fill-opacity="0" stroke="#000000" stroke-width="1" stroke-opacity="0"></use></g></g><g><use xlink:href="#b16vPWtcRL" opacity="1" fill="#ffe1b4" fill-opacity="1"></use><g><use xlink:href="#b16vPWtcRL" opacity="1" fill-opacity="0" stroke="#000000" stroke-width="1" stroke-opacity="0"></use></g></g><g><use xlink:href="#a1gUcIwNhL" opacity="1" fill="#6f6571" fill-opacity="1"></use><g><use xlink:href="#a1gUcIwNhL" opacity="1" fill-opacity="0" stroke="#000000" stroke-width="1" stroke-opacity="0"></use></g></g><g><use xlink:href="#a1KLznyG1v" opacity="1" fill="#6f6571" fill-opacity="1"></use><g><use xlink:href="#a1KLznyG1v" opacity="1" fill-opacity="0" stroke="#000000" stroke-width="1" stroke-opacity="0"></use></g></g><g><use xlink:href="#a1HgSH8LTF" opacity="1" fill="#fad7a5" fill-opacity="1"></use><g><use xlink:href="#a1HgSH8LTF" opacity="1" fill-opacity="0" stroke="#000000" stroke-width="1" stroke-opacity="0"></use></g></g><g><use xlink:href="#a1Xgqf9K0l" opacity="1" fill="#6f6571" fill-opacity="1"></use><g><use xlink:href="#a1Xgqf9K0l" opacity="1" fill-opacity="0" stroke="#000000" stroke-width="1" stroke-opacity="0"></use></g></g><g><use xlink:href="#apXT19rVW" opacity="1" fill="#6f6571" fill-opacity="1"></use><g><use xlink:href="#apXT19rVW" opacity="1" fill-opacity="0" stroke="#000000" stroke-width="1" stroke-opacity="0"></use></g></g><g><use xlink:href="#bfNNzzZzT" opacity="1" fill="#000000" fill-opacity="1"></use><g><use xlink:href="#bfNNzzZzT" opacity="1" fill-opacity="0" stroke="#000000" stroke-width="1" stroke-opacity="0"></use></g></g><g><use xlink:href="#c16LPvfzgW" opacity="1" fill="#000000" fill-opacity="1"></use><g><use xlink:href="#c16LPvfzgW" opacity="1" fill-opacity="0" stroke="#000000" stroke-width="1" stroke-opacity="0"></use></g></g><g><use xlink:href="#bAQs6iHu2" opacity="1" fill="#000000" fill-opacity="1"></use><g><use xlink:href="#bAQs6iHu2" opacity="1" fill-opacity="0" stroke="#000000" stroke-width="1" stroke-opacity="0"></use></g></g><g><use xlink:href="#b1rxlg9aH" opacity="1" fill="#000000" fill-opacity="1"></use><g><use xlink:href="#b1rxlg9aH" opacity="1" fill-opacity="0" stroke="#000000" stroke-width="1" stroke-opacity="0"></use></g></g></g></g></svg>