
<svg id="bold" enable-background="new 41.64 164.945 512 512" height="512" viewBox="41.64 164.945 512 512" width="512" xmlns="http://www.w3.org/2000/svg"><g><path d="m53.122 420.929c-5.778.106-10.431 4.823-10.431 10.623v196.482c0 2.932 2.379 5.311 5.311 5.311h50.395c4.759 0 8.923-3.145 10.22-7.713l47.017-165.674c3.038-10.709-2.698-21.969-13.172-25.771-19.25-7.011-48.782-13.938-89.34-13.258z"/><path d="m510.098 537.739c-42.491 0-127.476 53.772-169.966 53.772-42.492 0-90.295-32.527-90.295-32.527s57.237 10.624 90.295 10.624 42.49-11.282 42.49-26.559c0-37.179-63.142-42.959-95.095-47.824-31.359-17.464-47.655-31.273-99.6-35.671-.298 3.038-.765 6.054-1.615 9.051l-42.683 150.42c48.334 21.988 131.575 56.812 175.256 56.812 63.737 0 233.705-84.983 233.705-106.229s-21.247-31.869-42.492-31.869z"/><path d="m529.624 180.384c-1.827-5.949-7.988-10.411-14.149-11.218-37.627-4.951-89.147-11.728-130.365 25.346-26.885 24.217-30.876 64.597-10.964 93.823-17.577 18.058-29.609 39.516-37.739 59.046-3.497-6.747-7.52-13.716-12.063-20.898-5.48-8.658-10.941-16.376-15.584-22.6 3.973-10.208 6.087-21.417 5.963-33.205-.254-24.561-10.196-48.653-26.599-64.418-50.331-48.355-113.389-42.024-164.039-36.925l-2.634.276c-6.183.617-11.451 4.76-13.47 10.645-2.019 5.863-.468 12.386 4.016 16.699 22.69 21.776 27.322 44.956 32.208 69.474 4.355 21.798 8.859 44.361 27.258 62.059 17.4 16.721 40.367 25.155 62.824 25.155 19.05 0 37.621-6.271 52.152-18.532.546-.724 1.286-1.408 2.247-2.039 14.944 21.544 31.608 51.088 31.608 73.279 0 8.815 6.852 16.113 15.648 16.67.358.022.714.034 1.067.034 8.348 0 15.492-6.209 16.558-14.599.097-.757 8.255-61.158 46.345-98.593.23.143.367.226.367.226 6.799 2.826 14.192 4.695 22.161 5.163 1.507.106 3.017.149 4.503.149 18.547 0 36.988-6.777 50.057-18.547 15.486-13.938 19.65-31.763 23.667-48.993 4.248-18.188 8.243-35.354 25.409-50.82 4.61-4.122 5.396-10.729 3.548-16.657z"/></g></svg>