<svg id="Capa_1" enable-background="new 0 0 512 512" height="512" viewBox="0 0 512 512" width="512" xmlns="http://www.w3.org/2000/svg"><g><g><path d="m226.5 452c-89.602 0-162.5-72.897-162.5-162.5 0-21.885 4.278-43.121 12.716-63.12 1.611-3.817 6.009-5.604 9.826-3.995 3.816 1.61 5.605 6.01 3.995 9.825-7.655 18.144-11.537 37.419-11.537 57.29 0 81.332 66.168 147.5 147.5 147.5 81.333 0 147.5-66.168 147.5-147.5s-66.168-147.5-147.5-147.5c-47.192 0-91.901 22.86-119.598 61.152-2.428 3.356-7.116 4.109-10.473 1.682-3.356-2.428-4.109-7.116-1.682-10.473 30.51-42.179 79.763-67.361 131.753-67.361 89.603 0 162.5 72.897 162.5 162.5s-72.897 162.5-162.5 162.5z"/></g><g><path d="m226.517 512c-10.078 0-19.63-3.933-26.979-11.127-6.251-6.121-10.324-14.188-11.605-22.746-24.18-4.903-46.818-14.275-67.445-27.922-6.782 5.225-15.048 8.055-23.749 8.055-10.103 0-19.684-3.851-26.977-10.842-7.494-7.185-11.682-16.957-11.793-27.52-.092-8.751 2.734-17.339 7.884-24.298-13.659-20.621-23.044-43.253-27.96-67.429-8.489-1.102-16.332-4.942-22.478-11.088-7.144-7.145-11.195-16.644-11.408-26.747-.219-10.38 3.73-20.252 11.12-27.8 6.121-6.25 14.187-10.322 22.744-11.604 4.904-24.181 14.276-46.818 27.922-67.444-5.225-6.782-8.055-15.048-8.055-23.749 0-10.103 3.85-19.683 10.842-26.977 7.185-7.494 16.958-11.682 27.521-11.793 8.745-.138 17.339 2.734 24.298 7.884 20.621-13.659 43.252-23.044 67.428-27.96 1.101-8.489 4.941-16.331 11.087-22.478 7.144-7.143 16.642-11.194 26.746-11.408 10.391-.227 20.254 3.73 27.801 11.12 6.25 6.12 10.323 14.187 11.604 22.744 22.921 4.654 44.574 13.382 64.441 25.984.318.201 1.223.738 3.259 1.748.101-.075.2-.15.301-.226.985-.729 1.331-1.976.861-3.104-.619-1.484-1.213-3.026-1.761-4.579-3.426-9.667-5.166-19.83-5.166-30.194 0-24.174 9.413-46.9 26.506-63.993 17.094-17.093 39.82-26.507 63.994-26.507s46.9 9.414 63.993 26.508c1.786 1.785 3.524 3.675 5.164 5.615 2.674 3.163 2.276 7.896-.888 10.569s-7.896 2.276-10.569-.888c-1.369-1.62-2.82-3.198-4.312-4.689-14.261-14.261-33.221-22.115-53.388-22.115s-39.127 7.854-53.387 22.114c-14.259 14.259-22.113 33.219-22.113 53.386 0 8.652 1.45 17.129 4.31 25.194.458 1.298.949 2.576 1.464 3.81 3.123 7.497.744 16.104-5.781 20.933-.347.257-.688.524-1.024.803-3.688 3.053-8.899 3.673-13.275 1.578-2.806-1.343-4.838-2.419-6.213-3.289-19.858-12.597-41.641-20.992-64.748-24.957-3.6-.617-6.231-3.739-6.231-7.392v-.501c0-6.646-2.745-13.146-7.532-17.832-4.642-4.546-10.699-6.943-16.99-6.842-6.217.132-12.062 2.624-16.456 7.019-4.53 4.528-7.024 10.557-7.024 16.976v1.18c0 3.652-2.631 6.774-6.231 7.392-26.117 4.482-50.369 14.53-72.082 29.865-2.986 2.108-7.057 1.758-9.637-.83l-.357-.358c-4.693-4.693-11.198-7.336-17.932-7.278-6.496.068-12.48 2.616-16.851 7.175-4.301 4.486-6.67 10.381-6.67 16.596 0 6.412 2.498 12.441 7.034 16.978l.839.839c2.582 2.582 2.929 6.648.823 9.63-15.334 21.713-25.382 45.964-29.864 72.082-.618 3.6-3.739 6.231-7.392 6.231h-.501c-6.646 0-13.146 2.745-17.832 7.532-4.545 4.642-6.975 10.675-6.841 16.988.131 6.218 2.623 12.062 7.018 16.457 4.528 4.527 10.557 7.021 16.976 7.021h1.18c3.653 0 6.774 2.631 7.392 6.231 4.482 26.117 14.53 50.369 29.864 72.083 2.106 2.982 1.758 7.048-.823 9.63l-.358.358c-4.7 4.7-7.355 11.238-7.285 17.938.068 6.496 2.617 12.479 7.175 16.85 4.486 4.301 10.38 6.67 16.596 6.67 6.412 0 12.441-2.498 16.978-7.033l.839-.84c2.582-2.58 6.648-2.93 9.63-.822 21.713 15.334 45.965 25.382 72.082 29.864 3.6.617 6.231 3.739 6.231 7.392v.501c0 6.646 2.746 13.146 7.533 17.833 4.641 4.544 10.695 6.966 16.988 6.841 6.217-.132 12.061-2.624 16.456-7.019 4.529-4.528 7.023-10.558 7.023-16.977v-1.18c0-3.652 2.631-6.774 6.231-7.392 26.117-4.482 50.369-14.53 72.082-29.864 2.977-2.104 7.038-1.762 9.622.815l.358.357c4.708 4.709 11.278 7.39 17.945 7.294 6.496-.068 12.48-2.616 16.851-7.175 4.301-4.486 6.67-10.381 6.67-16.597 0-6.412-2.498-12.44-7.033-16.976l-.837-.837c-2.585-2.582-2.934-6.649-.826-9.633 15.335-21.714 25.383-45.966 29.865-72.083.617-3.601 3.739-6.231 7.392-6.231h.501c6.646 0 13.146-2.745 17.832-7.532 4.545-4.642 6.975-10.675 6.842-16.988-.132-6.217-2.624-12.062-7.019-16.457-4.529-4.528-10.559-7.022-16.977-7.022h-1.18c-3.652 0-6.773-2.631-7.392-6.23-4.275-24.903-13.635-48.153-27.819-69.105-.447-.673-.804-1.364-1.129-2.17-1.729-4.289-.913-9.183 2.124-12.774.962-1.138 1.817-2.364 2.544-3.647 4.004-7.064 12.204-10.506 19.946-8.368 6.65 1.863 13.485 2.796 20.405 2.796 20.167 0 39.127-7.854 53.386-22.113 14.262-14.261 22.115-33.221 22.115-53.388 0-7.003-.957-13.936-2.844-20.604-1.128-3.985 1.189-8.131 5.175-9.259 3.986-1.13 8.131 1.19 9.259 5.175 2.263 7.998 3.41 16.304 3.41 24.688 0 24.174-9.414 46.9-26.507 63.994-17.093 17.093-39.819 26.506-63.993 26.506-8.289 0-16.486-1.12-24.364-3.328-1.132-.311-2.329.223-2.937 1.294-.889 1.57-1.896 3.088-3.004 4.529 13.616 20.567 22.998 43.198 27.91 67.333 8.488 1.102 16.331 4.942 22.478 11.088 7.145 7.146 11.195 16.645 11.408 26.747.219 10.38-3.73 20.252-11.12 27.8-6.12 6.25-14.186 10.322-22.744 11.604-4.903 24.18-14.275 46.817-27.923 67.445 5.227 6.782 8.056 15.048 8.056 23.748 0 10.104-3.851 19.684-10.842 26.978-7.186 7.494-16.959 11.683-27.522 11.793-.137.001-.275.002-.412.002-8.608 0-17.034-2.818-23.884-7.887-20.622 13.66-43.251 23.044-67.428 27.961-1.102 8.488-4.942 16.331-11.089 22.478-7.144 7.144-16.643 11.194-26.746 11.407-.273.005-.547.008-.82.008z"/></g><g><path d="m293.5 379c-28.948 0-52.5-23.552-52.5-52.5s23.552-52.5 52.5-52.5 52.5 23.552 52.5 52.5-23.552 52.5-52.5 52.5zm0-90c-20.678 0-37.5 16.822-37.5 37.5s16.822 37.5 37.5 37.5 37.5-16.822 37.5-37.5-16.822-37.5-37.5-37.5z"/></g><g><path d="m193 255c-16.542 0-30-13.458-30-30s13.458-30 30-30 30 13.458 30 30-13.458 30-30 30zm0-45c-8.271 0-15 6.729-15 15s6.729 15 15 15 15-6.729 15-15-6.729-15-15-15z"/></g><g><path d="m196 311c-5.514 0-10-4.486-10-10s4.486-10 10-10 10 4.486 10 10-4.486 10-10 10z"/></g><g><path d="m286 231c-5.514 0-10-4.486-10-10s4.486-10 10-10 10 4.486 10 10-4.486 10-10 10z"/></g><g><path d="m286 331c-5.514 0-10-4.486-10-10s4.486-10 10-10 10 4.486 10 10-4.486 10-10 10z"/></g><g><path d="m121.5 312c-12.407 0-22.5-10.094-22.5-22.5s10.093-22.5 22.5-22.5 22.5 10.094 22.5 22.5-10.093 22.5-22.5 22.5zm0-30c-4.136 0-7.5 3.364-7.5 7.5s3.364 7.5 7.5 7.5 7.5-3.364 7.5-7.5-3.364-7.5-7.5-7.5z"/></g><g><path d="m182.5 407c-17.92 0-32.5-14.579-32.5-32.5s14.58-32.5 32.5-32.5 32.5 14.579 32.5 32.5-14.579 32.5-32.5 32.5zm0-50c-9.649 0-17.5 7.851-17.5 17.5s7.851 17.5 17.5 17.5 17.5-7.851 17.5-17.5-7.85-17.5-17.5-17.5z"/></g><g><path d="m402 85.5c-12.406 0-22.5-10.094-22.5-22.5s10.094-22.5 22.5-22.5 22.5 10.094 22.5 22.5-10.094 22.5-22.5 22.5zm0-30c-4.136 0-7.5 3.364-7.5 7.5s3.364 7.5 7.5 7.5 7.5-3.364 7.5-7.5-3.364-7.5-7.5-7.5z"/></g><g><path d="m422 145.5c-12.406 0-22.5-10.094-22.5-22.5s10.094-22.5 22.5-22.5 22.5 10.094 22.5 22.5-10.094 22.5-22.5 22.5zm0-30c-4.136 0-7.5 3.364-7.5 7.5s3.364 7.5 7.5 7.5 7.5-3.364 7.5-7.5-3.364-7.5-7.5-7.5z"/></g></g></svg>