<?xml version="1.0" encoding="UTF-8"?>
<svg xmlns="http://www.w3.org/2000/svg" viewBox="0 0 512 512" width="512" height="512"><g id="outline"><path d="M126.65,404.081A52.546,52.546,0,0,0,160,449.587V488a8,8,0,0,0,8,8H344a8,8,0,0,0,8-8V448.724a44.551,44.551,0,0,0,40-44.243V304.286a79.554,79.554,0,0,0-38.429-67.873l-4.611-2.767-14.9-14.9-19.208-25.611a63.482,63.482,0,0,0,4.66-17.362A27.994,27.994,0,0,0,320,120.29V58.262A42.31,42.31,0,0,0,277.738,16H234.262A42.31,42.31,0,0,0,192,58.262V120.29a27.994,27.994,0,0,0,.489,55.482,63.482,63.482,0,0,0,4.66,17.362l-19.208,25.611-14.9,14.9-4.611,2.767A79.554,79.554,0,0,0,120,304.286c0,.178.006.356.018.533ZM176,480V453.115c1.082.067,2.166.111,3.252.111,3.122,0,52.748-8.731,52.748-8.731V448a8,8,0,0,0,4.422,7.155l16,8a8,8,0,0,0,7.156,0l16-8A8,8,0,0,0,280,448v-8h16a7.989,7.989,0,0,0,7.025-4.2l29.742,10.537c1.072.38,2.151.711,3.233,1.007V480ZM281.167,120H230.833a15.914,15.914,0,0,1-14.312-8.845L212.944,104h86.112l-3.577,7.155A15.914,15.914,0,0,1,281.167,120ZM208,168V126.423a31.672,31.672,0,0,0,14.242,8.412A10,10,0,1,0,241.949,136h28.1a10,10,0,1,0,19.707-1.165A31.672,31.672,0,0,0,304,126.423V168a48,48,0,0,1-96,0Zm48.722,272L264,443.056l-8,4-8-4ZM248,281.889,252.944,272h6.112L264,281.889v67.818l-16-8ZM262.938,424l-.361-2.532L269.723,424Zm-12.58-192.263c1.861.163,3.74.263,5.642.263,1.763,0,3.5-.091,5.231-.232l1.408.939a32.43,32.43,0,0,1,10.255,11.085L260.687,256h-9.374l-13.541-13.542A32.188,32.188,0,0,1,250.358,231.737ZM238.111,354.651l22.373,11.186-9.375,32.811L216,388.617V354.651ZM376,404.481a28.4,28.4,0,0,1-37.89,26.773l-72.352-25.633,11.736-41.08,48.308,13.8a8.013,8.013,0,0,0,2.2.308h48Zm-7.781-130.449A63.142,63.142,0,0,1,376,304a15.992,15.992,0,0,1-7.776-29.968ZM339.884,246.86l5.455,3.273a62.63,62.63,0,0,1,13.47,10.894A31.989,31.989,0,0,0,376,320v42.651H335.55l8.04-24.121a8,8,0,0,0-15.18-5.06l-8.819,26.458L280,348.616V280a7.994,7.994,0,0,0-.845-3.578l-5.421-10.842,6.741-6.741.37.739A8,8,0,0,0,293,262.247l34.409-27.527,10.937,10.937A8.05,8.05,0,0,0,339.884,246.86ZM316.947,222.6l-26.218,20.974-2.778-5.555a48.351,48.351,0,0,0-7.482-10.888,64.318,64.318,0,0,0,25.486-19.188ZM328,148a12.02,12.02,0,0,1-8,11.314V136.686A12.02,12.02,0,0,1,328,148ZM208,58.262A26.292,26.292,0,0,1,234.262,32h43.476A26.292,26.292,0,0,1,304,58.262V88H208ZM184,148a12.02,12.02,0,0,1,8-11.314v22.628A12.02,12.02,0,0,1,184,148Zm22.045,59.94a64.343,64.343,0,0,0,24.226,18.642,47.9,47.9,0,0,0-10.557,15.744L195.053,222.6Zm-39.384,42.193,5.455-3.273a8.011,8.011,0,0,0,1.541-1.2l10.937-10.937L219,262.247a7.991,7.991,0,0,0,12.484-3.446l6.779,6.779-5.421,10.842A7.994,7.994,0,0,0,232,280v58.651H208a8,8,0,0,0-8,8v28.125l-2.521.36L183.59,333.47a8,8,0,0,0-15.18,5.06l16,48a8,8,0,0,0,8.721,5.389l6.869-.981v3.713a8,8,0,0,0,5.8,7.692L243,412.97l3.171,12.686-60.412,10.985a36.665,36.665,0,0,1-43.141-33.627L136,304.027A63.471,63.471,0,0,1,166.661,250.133Z"/><path d="M248,169h16a8,8,0,0,0,0-16h-3.056l2.211-4.422a8,8,0,1,0-14.31-7.156l-8,16A8,8,0,0,0,248,169Z"/><path d="M248,193h16a8,8,0,0,0,0-16H248a8,8,0,0,0,0,16Z"/><path d="M296,304a8,8,0,0,0,0,16h32a8,8,0,0,0,0-16Z"/><path d="M184,320h32a8,8,0,0,0,0-16H184a8,8,0,0,0,0,16Z"/><path d="M232,56a24,24,0,1,0,24-24A24.027,24.027,0,0,0,232,56Zm24-8a8,8,0,1,1-8,8A8.009,8.009,0,0,1,256,48Z"/></g></svg>
