<?xml version="1.0" encoding="iso-8859-1"?>
<!-- Generator: Adobe Illustrator 19.0.0, SVG Export Plug-In . SVG Version: 6.00 Build 0)  -->
<svg version="1.1" id="Capa_1" xmlns="http://www.w3.org/2000/svg" xmlns:xlink="http://www.w3.org/1999/xlink" x="0px" y="0px"
	 viewBox="0 0 511.999 511.999" style="enable-background:new 0 0 511.999 511.999;" xml:space="preserve">
<g>
	<g>
		<path d="M421.667,240.217c-2.464,0-4.905,0.103-7.32,0.298l-6.925-41.836c6.452,4.316,14.201,6.838,22.529,6.838l16.566,0.001
			c3.782,0,6.973-2.816,7.442-6.57l8.284-66.268c0.267-2.135-0.396-4.281-1.819-5.894c-1.423-1.613-3.471-2.537-5.623-2.537h-24.85
			c-13.109,0-24.781,6.246-32.216,15.912l-4.727-28.553c-1.746-11.688-11.964-20.491-23.802-20.491h-22.088
			c-4.142,0-7.5,3.358-7.5,7.5c0,4.142,3.358,7.5,7.5,7.5h22.088c4.47,0,8.327,3.326,8.971,7.736
			c0.007,0.047,0.014,0.095,0.022,0.142l2.336,14.114c-9.769-7.651-22.065-12.141-35.332-12.141h-32.775c-4.142,0-7.5,3.358-7.5,7.5
			c0,4.142,3.358,7.5,7.5,7.5h32.775c20.696,0,38.198,14.786,41.616,35.157c0.01,0.06,0.026,0.117,0.038,0.176l4.008,24.216
			l-152.214-0.002v-33.912c0,0,0,0,0-0.001v-0.001c0-14.134,11.499-25.633,25.633-25.633h17.956c4.142,0,7.5-3.358,7.5-7.5
			c0-4.142-3.358-7.5-7.5-7.5h-17.956c-19.843,0-36.398,14.301-39.928,33.135H106.903c-10.651,0-19.703,6.958-22.863,16.565H64.703
			v-17.349c0-4.142-3.358-7.5-7.5-7.5H32.354c-4.142,0-7.5,3.358-7.5,7.5v49.7c0,3.228,2.066,6.094,5.128,7.115l8.974,2.991
			c-13.822,7.67-26.396,17.696-37.079,29.802c-2.741,3.106-2.445,7.845,0.66,10.586c1.426,1.258,3.196,1.876,4.96,1.876
			c2.077,0,4.144-0.858,5.626-2.537c23.744-26.904,57.925-42.335,93.778-42.335h13.717l10.763,9.583l-8.684,26.516
			c-5.147-0.92-10.427-1.4-15.794-1.4c-40.716,0-76.377,27.525-87.068,66.267H7.504c-4.142,0-7.5,3.358-7.5,7.5v33.133
			c0,4.142,3.358,7.5,7.5,7.5h12.333c10.691,38.734,46.371,66.266,87.067,66.266c40.856,0,76.621-27.713,87.176-66.665
			c8.635-1.581,15.671-7.782,18.445-15.942h76.61c15.858,0,30.369-9.321,36.948-23.707l50.667-109.053h16.599l6.198,37.444
			c-39.151,9.891-68.214,45.408-68.214,87.589c0,49.81,40.523,90.333,90.333,90.333s90.333-40.523,90.333-90.333
			S471.477,240.217,421.667,240.217z M437.452,139.25h8.853l-6.408,51.267h-2.445V139.25z M49.703,195.896l-9.849-3.283v-36.794
			h9.849V195.896z M82.836,192.616c-6.154,1.075-12.21,2.558-18.133,4.432v-16.38h18.134L82.836,192.616z M132.545,259.745
			c21.26,7.745,38.372,24.849,45.755,46.739h-19.502c-6.4-13.79-17.984-24.302-31.896-29.508L132.545,259.745z M141.573,306.484
			h-24.335l4.991-15.239C130.01,294.286,136.772,299.584,141.573,306.484z M106.904,255.217c3.749,0,7.442,0.296,11.066,0.837
			l-5.748,17.553c-1.757-0.164-3.529-0.258-5.318-0.258c-22.387,0-42.605,13.117-51.895,33.134h-6.011
			c-0.026,0-0.051-0.004-0.077-0.004s-0.051,0.004-0.077,0.004H35.506C45.683,276.295,74.359,255.217,106.904,255.217z
			 M107.391,288.36l-5.936,18.125H72.234v-0.001c7.761-11.153,20.639-18.134,34.67-18.134
			C107.067,288.35,107.229,288.358,107.391,288.36z M15.004,339.617v-18.133h26.417v18.133H15.004z M106.904,405.883
			c-32.528,0-61.217-21.083-71.396-51.266H55.01c9.29,20.017,29.508,33.133,51.894,33.133s42.604-13.116,51.894-33.133h19.504
			C168.123,384.806,139.449,405.883,106.904,405.883z M72.234,354.618l69.339,0.001c-7.761,11.152-20.639,18.133-34.67,18.133
			S79.996,365.77,72.234,354.618z M189.737,339.619h-1.576c-0.065-0.001-0.13-0.001-0.194,0l-131.546-0.001v-18.134h50.447
			c0.008,0,0.016,0.002,0.025,0.002c0.008,0,0.016-0.002,0.025-0.002h82.819c5,0,9.067,4.067,9.067,9.067
			S194.737,339.619,189.737,339.619z M215.37,323.277h-2.691c-2.664-8.382-9.803-14.782-18.597-16.393
			c-7.827-28.878-29.52-51.582-56.869-61.39l6.389-19.511l49.431,44.015c1.374,1.223,3.149,1.899,4.988,1.899h17.349V323.277z
			 M223.652,256.896h-22.777l-55.889-49.766c-0.013-0.012-0.026-0.023-0.039-0.035l-1.772-1.578h80.477V256.896z M223.652,190.515
			h-0.784c-0.016,0-0.032,0.002-0.048,0.003H97.837l0.001-17.348v-0.001c0-4.999,4.066-9.066,9.065-9.066h25.634v9.065
			c0,4.142,3.358,7.5,7.5,7.5c4.142,0,7.5-3.358,7.5-7.5v-9.065h34.699v9.065c0,4.142,3.358,7.5,7.5,7.5c4.142,0,7.5-3.358,7.5-7.5
			v-9.065h26.416V190.515z M263.503,205.516l58.196,0.001l-1.642,9.851h-56.554V205.516z M263.503,230.368h54.054l-1.642,9.85
			h-52.412V230.368z M312.462,308.29c-4.164,9.104-13.32,14.986-23.326,14.986H230.37v-51.38h0.783c4.142,0,7.5-3.358,7.5-7.5
			v-58.881h9.85v9.852h-0.783c-4.142,0-7.5,3.358-7.5,7.5c0,4.142,3.358,7.5,7.5,7.5h0.783v17.35c0,4.142,3.358,7.5,7.5,7.5h66.266
			c3.666,0,6.795-2.65,7.398-6.267l3.097-18.583h0.895c4.142,0,7.5-3.358,7.5-7.5c0-3.601-2.539-6.606-5.923-7.331l1.67-10.02
			h23.304L312.462,308.29z M421.667,321.482c5,0,9.068,4.068,9.068,9.068c0,5.001-4.068,9.068-9.068,9.068s-9.068-4.068-9.068-9.068
			S416.667,321.482,421.667,321.482z M407.467,290.813l3.05,18.418c-7.671,4.028-12.919,12.07-12.919,21.319
			c0,13.272,10.797,24.068,24.068,24.068s24.068-10.797,24.068-24.068c0-12.032-8.875-22.03-20.423-23.792l-3.045-18.394
			c22.993,0.324,41.601,19.117,41.601,42.186c0,23.27-18.932,42.202-42.202,42.202c-23.27,0-42.201-18.932-42.201-42.202
			C379.464,312.26,391.162,296.656,407.467,290.813z M422.451,140.372v49.023c-10.486-3.215-18.133-12.986-18.133-24.511
			C404.318,153.358,411.965,143.587,422.451,140.372z M421.667,405.883c-41.539,0-75.333-33.794-75.333-75.333
			c0-34.738,23.642-64.045,55.676-72.715l2.979,18c-23.43,7.156-40.524,28.973-40.524,54.714c0,31.541,25.66,57.202,57.201,57.202
			c31.541,0,57.202-25.661,57.202-57.202c0-31.541-25.661-57.201-57.202-57.201c-0.629,0-1.252,0.027-1.877,0.048l-2.981-18.006
			c1.608-0.103,3.224-0.173,4.857-0.173c41.539,0,75.333,33.794,75.333,75.333S463.206,405.883,421.667,405.883z"/>
	</g>
</g>
<g>
	<g>
		<path d="M280.851,256.783c-17.837,0-32.349,14.512-32.349,32.349c0,17.837,14.512,32.348,32.349,32.348
			c17.837,0,32.349-14.511,32.349-32.348C313.2,271.295,298.688,256.783,280.851,256.783z M280.851,306.48
			c-9.566,0-17.349-7.782-17.349-17.348c0-9.566,7.783-17.349,17.349-17.349c9.566,0,17.349,7.783,17.349,17.349
			C298.2,298.698,290.417,306.48,280.851,306.48z"/>
	</g>
</g>
<g>
</g>
<g>
</g>
<g>
</g>
<g>
</g>
<g>
</g>
<g>
</g>
<g>
</g>
<g>
</g>
<g>
</g>
<g>
</g>
<g>
</g>
<g>
</g>
<g>
</g>
<g>
</g>
<g>
</g>
</svg>
