<svg id="Capa_1" enable-background="new 0 0 510.688 510.688" height="512" viewBox="0 0 510.688 510.688" width="512" xmlns="http://www.w3.org/2000/svg"><g><path d="m298.272 316.38c-12.985 7.513-27.83 11.484-42.928 11.484s-29.942-3.971-42.927-11.484l-12.996-7.519-84.732 146.76 12.971 7.505c38.65 22.363 82.803 34.184 127.684 34.184 44.882 0 89.034-11.82 127.684-34.184l12.972-7.505-84.732-146.76zm-42.928 150.93c-34.579 0-68.657-7.944-99.436-23.083l54.973-95.216c14.021 5.82 29.15 8.854 44.462 8.854s30.441-3.034 44.463-8.854l54.973 95.216c-30.778 15.139-64.856 23.083-99.435 23.083z"/><path d="m169.464 241.985c-.014-15.002 3.969-29.843 11.518-42.918s18.411-23.945 31.41-31.434l13.01-7.495-84.732-146.76-12.985 7.48c-38.691 22.291-71.005 54.617-93.446 93.486-22.441 38.868-34.28 83.015-34.239 127.67l.014 14.986h169.464zm-29.026-14.986h-109.946c2.278-34.225 12.438-67.709 29.727-97.655 17.29-29.946 41.209-55.487 69.708-74.572l54.973 95.216c-12.051 9.233-22.243 20.818-29.899 34.079s-12.593 27.88-14.563 42.932z"/><path d="m476.449 114.344c-22.44-38.869-54.754-71.195-93.446-93.486l-12.984-7.48-84.733 146.761 13.011 7.495c12.999 7.488 23.86 18.358 31.409 31.434 7.55 13.075 11.532 27.916 11.518 42.917l-.015 15.015h169.466l.014-14.986c.041-44.655-11.799-88.802-34.24-127.67zm-106.199 112.655c-1.971-15.053-6.907-29.672-14.564-42.933-7.656-13.261-17.848-24.846-29.898-34.079l54.973-95.216c28.5 19.085 52.419 44.626 69.709 74.572 17.289 29.946 27.448 63.431 29.727 97.655h-109.947z"/><path d="m202.184 241.999c0 29.313 23.848 53.16 53.16 53.16s53.16-23.848 53.16-53.16-23.848-53.16-53.16-53.16c-29.313 0-53.16 23.848-53.16 53.16zm53.16-23.16c12.771 0 23.16 10.39 23.16 23.16s-10.39 23.16-23.16 23.16c-12.771 0-23.16-10.39-23.16-23.16s10.389-23.16 23.16-23.16z"/></g></svg>