<?xml version="1.0"?>
<svg xmlns="http://www.w3.org/2000/svg" xmlns:xlink="http://www.w3.org/1999/xlink" xmlns:svgjs="http://svgjs.com/svgjs" version="1.1" width="512" height="512" x="0" y="0" viewBox="0 0 511.999 511.999" style="enable-background:new 0 0 512 512" xml:space="preserve" class=""><g>
<g xmlns="http://www.w3.org/2000/svg">
	<path style="" d="M309.252,365.261c1.798-3.078,2.847-6.652,2.847-10.48c0-11.463-9.235-20.752-20.625-20.752   c-1.946,0-3.83,0.279-5.612,0.783c0.026-0.391,0.056-0.781,0.056-1.18c0-8.596-6.925-15.564-15.471-15.564   c-8.39,0-15.205,6.725-15.446,15.107c-1.776-0.482-3.648-0.742-5.575-0.742c-11.831,0-21.425,9.646-21.425,21.549   c0,4.141,1.182,7.995,3.196,11.279L309.252,365.261L309.252,365.261z" fill="#b1e8ff" data-original="#b1e8ff" class=""/>
	<path style="" d="M209.684,365.261c1.741-2.832,2.763-6.154,2.763-9.725c0-10.264-8.3-18.586-18.539-18.586h-10.427   c0-11.543-9.336-20.906-20.857-20.906c-7.744,0-14.486,4.242-18.082,10.523c-2.581-10.697-12.165-18.654-23.63-18.654   c-0.825,0-1.636,0.043-2.44,0.125c0.078-0.807,0.123-1.621,0.123-2.447c0-13.473-10.892-24.393-24.332-24.393   c-13.438,0-24.332,10.92-24.332,24.393c0,2.02,0.271,3.969,0.732,5.844c-0.246-0.006-0.487-0.037-0.732-0.037   c-13.437,0-24.332,10.922-24.332,24.393c0,0.391,0.038,0.775,0.061,1.16H29.377c-10.239,0-18.539,8.322-18.539,18.586   c0,3.57,1.021,6.893,2.763,9.725h196.083V365.261z" fill="#b1e8ff" data-original="#b1e8ff" class=""/>
</g>
<g xmlns="http://www.w3.org/2000/svg">
	<path style="" d="M126.891,342.999c-12.458,0-22.64,9.911-23.088,22.262h15.023c0.426-4.074,3.879-7.262,8.064-7.262   c4.186,0,7.639,3.188,8.064,7.262h15.023C149.53,352.91,139.348,342.999,126.891,342.999z" fill="#63c3ea" data-original="#63c3ea" class=""/>
	<path style="" d="M90.719,348.608c-4.143,0-7.5-3.357-7.5-7.5c0-4.472-3.638-8.109-8.109-8.109   c-4.472,0-8.109,3.638-8.109,8.109c0,4.143-3.357,7.5-7.5,7.5s-7.5-3.357-7.5-7.5C52,328.366,62.367,317.999,75.109,317.999   s23.109,10.367,23.109,23.109C98.219,345.251,94.861,348.608,90.719,348.608z" fill="#63c3ea" data-original="#63c3ea" class=""/>
</g>
<path xmlns="http://www.w3.org/2000/svg" style="" d="M137.568,108.634c0,12.533-9.95,22.693-22.218,22.693c-12.273,0-22.219-10.16-22.219-22.693  s9.945-22.693,22.219-22.693C127.618,85.94,137.568,96.101,137.568,108.634z" fill="#b1e8ff" data-original="#b1e8ff" class=""/>
<g xmlns="http://www.w3.org/2000/svg">
</g>
<polygon xmlns="http://www.w3.org/2000/svg" style="" points="386.846,362.319 313,362.319 300.82,388.974 386.846,388.974 " fill="#727d80" data-original="#abccd3" class=""/>
<path xmlns="http://www.w3.org/2000/svg" style="" d="M316,362.319H6.894c-5.666,0-8.392,4.225-6.06,9.387l20.318,44.963  c2.332,5.164,8.878,9.389,14.544,9.389H276.62c5.666,0,12.211-4.225,14.545-9.389L316,362.319z" fill="#2d393c" data-original="#78a7af" class=""/>
<path xmlns="http://www.w3.org/2000/svg" style="" d="M506.849,362.319H404.154v42.879h102.694c2.834,0,5.151-2.318,5.151-5.15V367.47  C512,364.638,509.682,362.319,506.849,362.319z" fill="#bd924c" data-original="#ffbb4a" class=""/>
<path xmlns="http://www.w3.org/2000/svg" style="opacity:0.1;fill:#231F20;enable-background:new    ;" d="M54.991,416.669l-20.318-44.963  c-2.333-5.162,0.394-9.387,6.059-9.387H6.894c-5.666,0-8.392,4.225-6.06,9.387l20.318,44.963c2.332,5.164,8.878,9.389,14.544,9.389  h33.838C63.869,426.058,57.324,421.833,54.991,416.669z" fill=""/>
<path xmlns="http://www.w3.org/2000/svg" style="" d="M90.333,200.337c0,24.994-19.909,45.254-44.465,45.254c-24.558,0-44.463-20.26-44.463-45.254  c0-24.996,19.905-45.26,44.463-45.26C70.424,155.077,90.333,175.341,90.333,200.337z" fill="#d7f7ff" data-original="#d7f7ff" class=""/>
<path xmlns="http://www.w3.org/2000/svg" style="opacity:0.1;fill:#231F20;enable-background:new    ;" d="M62.516,229.073c-24.557,0-44.462-20.262-44.462-45.256  c0-8.408,2.26-16.275,6.184-23.021c-13.617,7.734-22.832,22.539-22.832,39.541c0,24.994,19.905,45.254,44.463,45.254  c16.297,0,30.539-8.928,38.281-22.238C77.745,226.991,70.371,229.073,62.516,229.073z" fill=""/>
<path xmlns="http://www.w3.org/2000/svg" style="" d="M152.489,229.245c-1.241,0-2.338-0.818-2.704-2.023c-4.44-14.49-7.488-17.59-21.746-22.102  c-1.183-0.373-1.992-1.486-1.992-2.75c0-1.26,0.81-2.375,1.992-2.75c14.258-4.51,17.306-7.609,21.746-22.1  c0.366-1.203,1.463-2.025,2.704-2.025c1.242,0,2.338,0.822,2.707,2.025c4.44,14.49,7.486,17.59,21.742,22.1  c1.184,0.375,1.99,1.49,1.99,2.75c0,1.264-0.806,2.377-1.99,2.75c-14.256,4.512-17.302,7.611-21.742,22.102  C154.827,228.427,153.731,229.245,152.489,229.245z" fill="#00000000" data-original="#ff9f3d" class=""/>
<path xmlns="http://www.w3.org/2000/svg" style="" d="M383.278,362.319v37.728c0,2.832,2.317,5.15,5.15,5.15h19.004v-42.878H383.278z" fill="#2d393c" data-original="#78a7af" class=""/>
<g xmlns="http://www.w3.org/2000/svg">
</g>
<g xmlns="http://www.w3.org/2000/svg">
</g>
<g xmlns="http://www.w3.org/2000/svg">
</g>
<g xmlns="http://www.w3.org/2000/svg">
</g>
<g xmlns="http://www.w3.org/2000/svg">
</g>
<g xmlns="http://www.w3.org/2000/svg">
</g>
<g xmlns="http://www.w3.org/2000/svg">
</g>
<g xmlns="http://www.w3.org/2000/svg">
</g>
<g xmlns="http://www.w3.org/2000/svg">
</g>
<g xmlns="http://www.w3.org/2000/svg">
</g>
<g xmlns="http://www.w3.org/2000/svg">
</g>
<g xmlns="http://www.w3.org/2000/svg">
</g>
<g xmlns="http://www.w3.org/2000/svg">
</g>
<g xmlns="http://www.w3.org/2000/svg">
</g>
<g xmlns="http://www.w3.org/2000/svg">
</g>
</g></svg>
