<?xml version="1.0" encoding="UTF-8" standalone="no"?>
<!DOCTYPE svg PUBLIC "-//W3C//DTD SVG 1.1//EN" "http://www.w3.org/Graphics/SVG/1.1/DTD/svg11.dtd">
<svg version="1.1" xmlns="http://www.w3.org/2000/svg" xmlns:xlink="http://www.w3.org/1999/xlink" preserveAspectRatio="xMidYMid meet" viewBox="0 0 640 640" width="640" height="640"><defs><path d="M477.2 504.25C481.27 504.25 484.58 499.98 484.58 494.71C484.58 490.77 484.58 459.25 484.58 455.31C484.58 450.04 481.27 445.77 477.2 445.77C448.86 445.77 222.14 445.77 193.8 445.77C189.73 445.77 186.42 450.04 186.42 455.31C186.42 459.25 186.42 490.77 186.42 494.71C186.42 499.98 189.73 504.25 193.8 504.25C193.8 504.25 448.86 504.25 477.2 504.25Z" id="ca8OKzgVd"></path><path d="M460.5 445.77L460.5 504.25C470.39 504.25 475.88 504.25 476.98 504.25C481.17 504.25 484.58 499.85 484.58 494.43C484.58 490.54 484.58 459.48 484.58 455.59C484.58 450.17 481.17 445.77 476.98 445.77C474.78 445.77 469.29 445.77 460.5 445.77Z" id="aG0UT5xoA"></path><path d="M475.19 235.78C480.37 235.78 484.58 230.34 484.58 223.64C484.58 222.49 484.58 213.31 484.58 212.17C484.58 205.46 480.37 200.03 475.19 200.03C447.25 200.03 223.75 200.03 195.81 200.03C190.63 200.03 186.42 205.46 186.42 212.17C186.42 213.32 186.42 222.49 186.42 223.64C186.42 230.34 190.63 235.78 195.81 235.78C251.69 235.78 447.25 235.78 475.19 235.78Z" id="b1OoVxLekJ"></path><path d="M458.78 235.78C468.45 235.78 473.83 235.78 474.9 235.78C480.24 235.78 484.58 230.18 484.58 223.27C484.58 222.2 484.58 213.61 484.58 212.53C484.58 205.63 480.24 200.03 474.9 200.03C473.83 200.03 468.45 200.03 458.78 200.03L458.78 235.78Z" id="a1eKo48pgp"></path><path d="M458.78 445.77L440.78 445.77L440.78 358.65L458.78 358.65L458.78 445.77Z" id="g14OItpNo5"></path><path d="M458.78 322.9L440.78 322.9L440.78 235.78L458.78 235.78L458.78 322.9Z" id="jVGh7eSv0"></path><path d="M230.22 445.77L212.22 445.77L212.22 358.65L230.22 358.65L230.22 445.77Z" id="f2xSnGfgX"></path><path d="M230.22 322.9L212.22 322.9L212.22 235.78L230.22 235.78L230.22 322.9Z" id="dEDy2DxYt"></path><path d="M212.22 200.13L230.22 200.13C230.22 155.19 230.22 130.22 230.22 125.22C230.22 121.69 228 118.82 225.27 118.82C224.46 118.82 217.98 118.82 217.17 118.82C214.44 118.82 212.22 121.69 212.22 125.22C212.22 135.21 212.22 160.18 212.22 200.13Z" id="a1PMK66xqZ"></path><path d="M186.42 346.14C186.42 353.05 190.76 358.65 196.1 358.65C223.98 358.65 447.02 358.65 474.9 358.65C480.24 358.65 484.58 353.05 484.58 346.14C484.58 345.07 484.58 336.48 484.58 335.41C484.58 328.5 480.24 322.9 474.9 322.9C447.02 322.9 223.98 322.9 196.1 322.9C190.76 322.9 186.42 328.5 186.42 335.41C186.42 335.41 186.42 345.07 186.42 346.14Z" id="avmADXtTN"></path><path d="M458.78 322.9L458.78 358.65C468.45 358.65 473.83 358.65 474.9 358.65C480.24 358.65 484.58 353.05 484.58 346.14C484.58 345.07 484.58 336.48 484.58 335.41C484.58 328.5 480.24 322.9 474.9 322.9C472.75 322.9 467.38 322.9 458.78 322.9Z" id="d9p9OOmTO"></path><path d="M440.78 200.13L458.78 200.13C458.78 155.3 458.78 130.4 458.78 125.42C458.78 121.78 456.5 118.82 453.68 118.82C452.9 118.82 446.66 118.82 445.88 118.82C443.07 118.82 440.78 121.78 440.78 125.42C440.78 135.38 440.78 160.28 440.78 200.13Z" id="d2bnGRK9Lq"></path></defs><g><g><g><g><use xlink:href="#ca8OKzgVd" opacity="1" fill="#bf7b4c" fill-opacity="1"></use><g><use xlink:href="#ca8OKzgVd" opacity="1" fill-opacity="0" stroke="#000000" stroke-width="1" stroke-opacity="0"></use></g></g><g><use xlink:href="#aG0UT5xoA" opacity="1" fill="#a86c43" fill-opacity="1"></use><g><use xlink:href="#aG0UT5xoA" opacity="1" fill-opacity="0" stroke="#000000" stroke-width="1" stroke-opacity="0"></use></g></g><g><use xlink:href="#b1OoVxLekJ" opacity="1" fill="#bf7b4c" fill-opacity="1"></use><g><use xlink:href="#b1OoVxLekJ" opacity="1" fill-opacity="0" stroke="#000000" stroke-width="1" stroke-opacity="0"></use></g></g><g><use xlink:href="#a1eKo48pgp" opacity="1" fill="#a86c43" fill-opacity="1"></use><g><use xlink:href="#a1eKo48pgp" opacity="1" fill-opacity="0" stroke="#000000" stroke-width="1" stroke-opacity="0"></use></g></g><g><use xlink:href="#g14OItpNo5" opacity="1" fill="#805333" fill-opacity="1"></use><g><use xlink:href="#g14OItpNo5" opacity="1" fill-opacity="0" stroke="#000000" stroke-width="1" stroke-opacity="0"></use></g></g><g><use xlink:href="#jVGh7eSv0" opacity="1" fill="#805333" fill-opacity="1"></use><g><use xlink:href="#jVGh7eSv0" opacity="1" fill-opacity="0" stroke="#000000" stroke-width="1" stroke-opacity="0"></use></g></g><g><use xlink:href="#f2xSnGfgX" opacity="1" fill="#805333" fill-opacity="1"></use><g><use xlink:href="#f2xSnGfgX" opacity="1" fill-opacity="0" stroke="#000000" stroke-width="1" stroke-opacity="0"></use></g></g><g><use xlink:href="#dEDy2DxYt" opacity="1" fill="#805333" fill-opacity="1"></use><g><use xlink:href="#dEDy2DxYt" opacity="1" fill-opacity="0" stroke="#000000" stroke-width="1" stroke-opacity="0"></use></g></g><g><use xlink:href="#a1PMK66xqZ" opacity="1" fill="#805333" fill-opacity="1"></use><g><use xlink:href="#a1PMK66xqZ" opacity="1" fill-opacity="0" stroke="#000000" stroke-width="1" stroke-opacity="0"></use></g></g><g><use xlink:href="#avmADXtTN" opacity="1" fill="#bf7b4c" fill-opacity="1"></use><g><use xlink:href="#avmADXtTN" opacity="1" fill-opacity="0" stroke="#000000" stroke-width="1" stroke-opacity="0"></use></g></g><g><use xlink:href="#d9p9OOmTO" opacity="1" fill="#a86c43" fill-opacity="1"></use><g><use xlink:href="#d9p9OOmTO" opacity="1" fill-opacity="0" stroke="#000000" stroke-width="1" stroke-opacity="0"></use></g></g><g><use xlink:href="#d2bnGRK9Lq" opacity="1" fill="#805333" fill-opacity="1"></use><g><use xlink:href="#d2bnGRK9Lq" opacity="1" fill-opacity="0" stroke="#000000" stroke-width="1" stroke-opacity="0"></use></g></g></g></g></g></svg>