<svg height="512pt" viewBox="0 0 512.001 512" width="512pt" xmlns="http://www.w3.org/2000/svg"><path d="m433.460938 107.871094c2.519531-20.09375 9.734374-31.707032 9.734374-31.707032l-9.277343.988282c-1.644531 8.023437-8.308594 14.421875-16.886719 15.335937-8.582031.914063-16.441406-3.941406-19.734375-11.441406l-9.28125.988281s8.46875 8.765625 15.042969 25.835938zm0 0" fill="#a5d5a8"/><path d="m12.667969 512h486.667969c6.992187 0 12.664062-5.671875 12.664062-12.667969v-52.34375c0-6.996093-5.671875-12.667969-12.664062-12.667969h-486.667969c-6.996094 0-12.667969 5.671876-12.667969 12.667969v52.34375c0 6.996094 5.671875 12.667969 12.667969 12.667969zm0 0" fill="#bf7b4c"/><path d="m470.65625 434.320312v77.679688h28.292969c7.207031 0 13.050781-5.839844 13.050781-13.046875v-51.585937c0-7.207032-5.84375-13.046876-13.050781-13.046876zm0 0" fill="#a86c43"/><path d="m16.125 155.363281h479.75c8.90625 0 16.125-7.222656 16.125-16.128906v-15.238281c0-8.90625-7.21875-16.125-16.125-16.125h-479.75c-8.90625 0-16.125 7.222656-16.125 16.128906v15.238281c0 8.902344 7.21875 16.125 16.125 16.125zm0 0" fill="#bf7b4c"/><path d="m467.703125 107.871094v47.492187h27.683594c9.175781 0 16.613281-7.4375 16.613281-16.613281v-14.265625c0-9.175781-7.4375-16.609375-16.613281-16.609375h-27.683594zm0 0" fill="#a86c43"/><g fill="#805333"><path d="m467.703125 434.320312h-30.90625v-115.734374h30.90625zm0 0"/><path d="m467.703125 271.097656h-30.90625v-115.734375h30.90625zm0 0"/><path d="m75.203125 434.320312h-30.90625v-115.734374h30.90625zm0 0"/><path d="m75.203125 271.097656h-30.90625v-115.734375h30.90625zm0 0"/><path d="m44.296875 108.007812h30.90625v-99.507812c0-4.695312-3.804687-8.5-8.5-8.5h-13.90625c-4.691406 0-8.5 3.804688-8.5 8.5zm0 0"/></g><path d="m0 287.707031v14.265625c0 9.175782 7.4375 16.613282 16.613281 16.613282h478.773438c9.175781 0 16.613281-7.4375 16.613281-16.613282v-14.265625c0-9.171875-7.4375-16.609375-16.613281-16.609375h-478.773438c-9.175781 0-16.613281 7.4375-16.613281 16.609375zm0 0" fill="#bf7b4c"/><path d="m467.703125 271.097656v47.488282h27.683594c9.175781 0 16.613281-7.4375 16.613281-16.613282v-14.261718c0-9.175782-7.4375-16.613282-16.613281-16.613282zm0 0" fill="#a86c43"/><path d="m422.347656 205.425781c-2.671875 0-5.234375.625-7.601562 1.765625-2.550782-12.023437-11.023438-20.855468-21.089844-20.855468-4.820312 0-9.273438 2.027343-12.890625 5.457031-3.617187-3.429688-8.070313-5.457031-12.890625-5.457031-4.988281 0-9.585938 2.171874-13.265625 5.820312-3.671875-9.007812-10.957031-15.148438-19.347656-15.148438-8.214844 0-15.363281 5.878907-19.105469 14.570313-3.574219-3.296875-7.9375-5.242187-12.652344-5.242187-7.523437 0-14.160156 4.929687-18.097656 12.441406-3.9375-7.507813-10.574219-12.441406-18.097656-12.441406-9.929688 0-18.308594 8.59375-20.984375 20.367187-2.054688-.828125-4.238281-1.277344-6.503907-1.277344-.074218 0-.144531.007813-.21875.007813 1.386719 1.453125 2.578126 3.09375 3.527344 4.886718 3.679688-2.8125 8.277344-4.484374 13.265625-4.484374 4.820313 0 9.273438 1.5625 12.890625 4.203124 3.617188-2.640624 8.070313-4.203124 12.890625-4.203124 10.066407 0 18.539063 6.800781 21.089844 16.054687 2.367187-.875 4.929687-1.355469 7.601563-1.355469 10.363281 0 19.039062 7.207032 21.300781 16.882813 2.585937-1.078125 5.425781-1.671875 8.402343-1.671875 12.085938 0 21.882813 9.792968 21.882813 21.878906 0 5.082031-1.738281 9.757812-4.644531 13.472656h78.988281v-58.554687c-3.855469-4.417969-8.90625-7.117188-14.449219-7.117188zm0 0" fill="#63a65c"/><path d="m436.796875 8.757812v99.25h30.90625v-99.25c0-4.835937-3.921875-8.757812-8.757813-8.757812h-13.390624c-4.835938 0-8.757813 3.921875-8.757813 8.757812zm0 0" fill="#805333"/><path d="m132.4375 93.386719c-7.898438 2.175781-16.621094-.863281-21.324219-8.09375-4.703125-7.234375-3.941406-16.441407 1.246094-22.777344l-5.085937-7.824219s-7.191407 20.882813-32.070313 39.617188v13.566406h27.09375c20.382813-7.933594 35.230469-6.664062 35.230469-6.664062zm0 0" fill="#a5d5a8"/><path d="m243.300781 16.195312c-1.222656.625-2.375 1.335938-3.460937 2.109376-.046875-.085938-.085938-.175782-.128906-.265626-5.988282-11.644531-20.285157-16.230468-31.929688-10.246093-11.644531 5.988281-16.230469 20.285156-10.246094 31.929687.046875.085938.097656.171875.144532.257813-1.265626.433593-2.511719.957031-3.734376 1.585937-13.625 7.007813-18.996093 23.734375-11.988281 37.363282 7.007813 13.628906 23.734375 18.996093 37.363281 11.988281 2.515626-1.292969 5.316407-2.734375 8.300782-4.265625 5.777344 5.804687 14.859375 7.5 22.53125 3.554687 7.675781-3.949219 11.582031-12.316406 10.21875-20.394531 2.984375-1.535156 5.789062-2.976562 8.300781-4.269531 13.628906-7.003907 18.996094-23.734375 11.988281-37.363281-7.003906-13.625-23.734375-18.992188-37.359375-11.984376zm0 0" fill="#74c26c"/><path d="m199.167969 85.164062c0-31.386718 25.445312-56.832031 56.832031-56.832031 9.835938 0 19.089844 2.496094 27.160156 6.894531-.5-2.394531-1.324218-4.761718-2.5-7.042968-7.003906-13.628906-23.734375-18.996094-37.359375-11.988282-1.222656.625-2.375 1.335938-3.460937 2.109376-.046875-.085938-.085938-.175782-.128906-.265626-5.988282-11.644531-20.285157-16.230468-31.929688-10.246093-11.644531 5.988281-16.230469 20.285156-10.246094 31.929687.046875.085938.097656.171875.144532.257813-1.265626.433593-2.511719.957031-3.734376 1.585937-13.625 7.007813-18.996093 23.734375-11.988281 37.363282 3.773438 7.332031 10.359375 12.277343 17.761719 14.183593-.363281-2.597656-.550781-5.253906-.550781-7.949219zm0 0" fill="#63a65c"/><path d="m181.960938 78.929688c-6.679688-12.984376-2.113282-28.777344 10.121093-36.300782-.59375-2.722656-1.675781-5.382812-3.285156-7.859375-7.140625-10.976562-21.824219-14.089843-32.804687-6.949219-.082032.054688-.160157.113282-.246094.167969-.554688-1.210937-1.207032-2.398437-1.953125-3.550781-8.355469-12.847656-25.542969-16.488281-38.386719-8.132812-12.847656 8.351562-16.488281 25.539062-8.132812 38.386718 1.539062 2.367188 3.257812 5.011719 5.085937 7.820313-5.191406 6.339843-5.953125 15.546875-1.246094 22.777343 4.703125 7.234376 13.425781 10.273438 21.324219 8.097657 1.828125 2.8125 3.546875 5.453125 5.089844 7.824219 1.695312 2.609374 3.765625 4.832031 6.082031 6.660156h34.347656c6.539063-5.140625 10.207031-12.757813 10.546875-20.625-2.621094-2.261719-4.863281-5.046875-6.542968-8.316406zm0 0" fill="#74c26c"/><path d="m108.164062 56.0625c9.761719-7.894531 22.1875-12.621094 35.71875-12.621094 13.96875 0 26.757813 5.035156 36.652344 13.394532 2.070313-5.742188 6.027344-10.816407 11.546875-14.207032-.59375-2.722656-1.675781-5.386718-3.285156-7.859375-7.140625-10.976562-21.824219-14.089843-32.804687-6.949219-.082032.054688-.160157.113282-.246094.167969-.554688-1.210937-1.207032-2.402343-1.953125-3.554687-8.355469-12.84375-25.542969-16.484375-38.386719-8.132813-12.847656 8.355469-16.488281 25.542969-8.132812 38.390625.289062.445313.589843.90625.890624 1.371094zm0 0" fill="#63a65c"/><path d="m241.074219 107.871094h32.691406c-8.464844-24.566406-5.09375-42.324219-5.09375-42.324219l-8.300781 4.265625c1.363281 8.078125-2.542969 16.449219-10.21875 20.394531-7.671875 3.945313-16.753906 2.253907-22.53125-3.554687l-8.300782 4.265625s10.117188 4.691406 21.753907 16.953125zm0 0" fill="#a5d5a8"/><path d="m436.796875 17.199219c-4.085937-4.691407-9.992187-7.78125-16.699219-8.113281-13.078125-.652344-24.207031 9.421874-24.859375 22.5-.003906.097656-.003906.199218-.003906.296874-1.308594-.257812-2.652344-.429687-4.023437-.496093-15.308594-.761719-28.332032 11.027343-29.09375 26.332031-.761719 15.304688 11.027343 28.328125 26.332031 29.089844 2.824219.144531 5.96875.300781 9.320312.464844 2.089844 7.921874 9.101563 13.933593 17.722657 14.363281 8.617187.429687 16.191406-4.855469 19.058593-12.53125.761719.039062 1.507813.074219 2.246094.113281zm0 0" fill="#74c26c"/><path d="m436.796875 32.871094v-15.671875c-4.085937-4.691407-9.992187-7.78125-16.699219-8.113281-13.078125-.652344-24.207031 9.421874-24.859375 22.5-.003906.097656-.003906.199218-.003906.296874-1.308594-.257812-2.652344-.429687-4.023437-.496093-15.308594-.761719-28.332032 11.027343-29.09375 26.332031-.671876 13.457031 8.363281 25.152344 20.960937 28.296875 1.800781-28.714844 24.925781-51.644531 53.71875-53.144531zm0 0" fill="#63a65c"/><path d="m362.117188 57.71875c.417968-8.417969 4.546874-15.761719 10.722656-20.550781-4.789063-10.628907-16-17.484375-28.230469-16.183594-1.363281.144531-2.695313.390625-3.988281.722656-.007813-.101562-.011719-.199219-.023438-.296875-1.386718-13.023437-13.0625-22.453125-26.085937-21.070312-13.019531 1.386718-22.453125 13.0625-21.066407 26.085937.007813.097657.027344.195313.039063.292969-1.335937-.050781-2.6875-.011719-4.054687.132812-2.957032.316407-5.753907 1.089844-8.332032 2.234376 6.324219 13.453124.90625 29.605468-12.425781 36.457031-.457031.238281-.933594.480469-1.40625.726562 4.894531 10.390625 15.96875 17.046875 28.035156 15.761719 2.808594-.296875 5.941407-.628906 9.277344-.984375 3.292969 7.5 11.15625 12.351563 19.734375 11.441406 8.582031-.914062 15.246094-7.3125 16.886719-15.335937 3.335937-.355469 6.46875-.691406 9.28125-.988282 5.320312-.566406 10.121093-2.601562 14.058593-5.660156-1.757812-3.886718-2.648437-8.230468-2.421874-12.785156zm0 0" fill="#74c26c"/><path d="m330.597656 32.792969c13.332032 0 25.59375 4.59375 35.289063 12.28125 1.796875-3.066407 4.167969-5.746094 6.953125-7.90625-4.789063-10.628907-16-17.484375-28.230469-16.183594-1.363281.144531-2.695313.390625-3.988281.722656-.007813-.101562-.011719-.199219-.023438-.296875-1.386718-13.023437-13.0625-22.453125-26.085937-21.070312-13.019531 1.386718-22.453125 13.0625-21.066407 26.085937.007813.097657.027344.195313.039063.292969-1.335937-.050781-2.6875-.011719-4.054687.132812-2.957032.316407-5.753907 1.089844-8.332032 2.234376 6.324219 13.453124.90625 29.605468-12.425781 36.457031-.457031.238281-.933594.480469-1.40625.726562 1.875 3.984375 4.660156 7.417969 8.0625 10.066407 5.984375-24.976563 28.457031-43.542969 55.269531-43.542969zm0 0" fill="#63a65c"/><path d="m340.746094 107.871094c2.519531-20.09375 9.734375-31.707032 9.734375-31.707032l-9.28125.988282c-1.640625 8.023437-8.304688 14.421875-16.886719 15.335937-8.578125.910157-16.441406-3.941406-19.734375-11.441406l-9.277344.984375s8.464844 8.769531 15.042969 25.839844zm0 0" fill="#a5d5a8"/><path d="m340.570312 235.742188c-2.976562 0-5.816406.597656-8.402343 1.675781-2.261719-9.675781-10.9375-16.882813-21.300781-16.882813-2.671876 0-5.234376.480469-7.601563 1.355469-2.550781-9.253906-11.023437-16.054687-21.089844-16.054687-4.820312 0-9.273437 1.5625-12.890625 4.203124-3.617187-2.640624-8.070312-4.203124-12.890625-4.203124-4.988281 0-9.585937 1.671874-13.265625 4.480468-3.667968-6.933594-10.957031-11.664062-19.347656-11.664062-4.324219 0-8.34375 1.261718-11.734375 3.425781-10.855469-6.011719-20.703125-5.625-28.847656 5.617187-3.765625 1.664063-6.980469 4.351563-9.273438 7.71875-3.9375-5.78125-10.574219-9.578124-18.097656-9.578124-9.929687 0-18.308594 6.617187-20.984375 15.679687-2.054688-.636719-4.238281-.980469-6.503906-.980469-12.085938 0-21.878906 9.792969-21.878906 21.878906 0 .640626.03125 1.269532.085937 1.894532-7.644531 3.414062-12.972656 11.074218-12.972656 19.988281 0 2.375.382812 4.65625 1.082031 6.796875h263.148438c2.910156-3.714844 4.648437-8.386719 4.648437-13.472656 0-12.082032-9.796875-21.878906-21.882813-21.878906zm0 0" fill="#74c26c"/><path d="m115.8125 369.574219c-17.027344 0-31.984375 8.800781-40.609375 22.09375v42.652343h86.148437c1.835938-5.113281 2.84375-10.617187 2.84375-16.359374 0-26.722657-21.664062-48.386719-48.382812-48.386719zm0 0" fill="#f94530"/><path d="m115.8125 369.574219c-17.027344 0-31.984375 8.800781-40.609375 22.09375v8.820312c8.648437-8.101562 20.269531-13.066406 33.054687-13.066406 26.222657 0 47.574219 20.863281 48.359376 46.898437h4.734374c1.835938-5.113281 2.84375-10.617187 2.84375-16.359374 0-26.722657-21.664062-48.386719-48.382812-48.386719zm0 0" fill="#db3d2a"/><path d="m92.347656 375.644531c6.949219-3.863281 14.949219-6.070312 23.464844-6.070312 8.609375 0 16.6875 2.261719 23.691406 6.203125l7.265625-7.265625c4.828125-4.828125 4.828125-12.65625 0-17.484375s-12.65625-4.828125-17.484375 0l-1.035156 1.035156v-1.675781c0-6.828125-5.535156-12.363281-12.363281-12.363281s-12.367188 5.535156-12.367188 12.363281v1.464843l-1.183593-1.1875c-4.828126-4.828124-12.65625-4.828124-17.484376 0-4.828124 4.828126-4.828124 12.65625 0 17.488282zm0 0" fill="#74c26c"/><path d="m403.863281 369.574219c-26.71875 0-48.382812 21.664062-48.382812 48.386719 0 5.742187 1.003906 11.25 2.839843 16.359374h78.476563v-51.792968c-8.636719-8.03125-20.207031-12.953125-32.933594-12.953125zm0 0" fill="#f94530"/><path d="m403.863281 369.574219c-26.71875 0-48.382812 21.664062-48.382812 48.386719 0 2.777343.234375 5.496093.683593 8.140624 3.882813-22.835937 23.761719-40.222656 47.699219-40.222656 12.726563 0 24.296875 4.917969 32.933594 12.949219v-16.300781c-8.636719-8.03125-20.207031-12.953125-32.933594-12.953125zm0 0" fill="#db3d2a"/><path d="m436.796875 353.625c-.53125-.925781-1.179687-1.804688-1.972656-2.597656-4.828125-4.828125-12.65625-4.828125-17.484375 0l-1.035156 1.039062v-1.679687c0-6.828125-5.535157-12.363281-12.367188-12.363281-6.828125 0-12.363281 5.535156-12.363281 12.363281v1.464843l-1.183594-1.183593c-4.828125-4.828125-12.65625-4.828125-17.488281 0-4.828125 4.828125-4.828125 12.65625 0 17.484375l7.496094 7.496094c6.953124-3.863282 14.949218-6.070313 23.464843-6.070313 8.609375 0 16.6875 2.257813 23.695313 6.199219l7.261718-7.265625c.792969-.789063 1.441407-1.667969 1.976563-2.59375zm0 0" fill="#74c26c"/><path d="m170.199219 361.023438c7.796875-1.574219 16.085937-1.25 24.199219 1.328124 8.207031 2.613282 15.21875 7.214844 20.699218 13.097657l9.125-4.722657c6.066406-3.136718 8.4375-10.597656 5.300782-16.660156-3.136719-6.066406-10.59375-8.441406-16.660157-5.304687l-1.300781.675781.507812-1.597656c2.070313-6.507813-1.527343-13.460938-8.035156-15.53125-6.503906-2.070313-13.457031 1.527344-15.527344 8.03125l-.445312 1.398437-.769531-1.488281c-3.136719-6.066406-10.597657-8.441406-16.660157-5.300781-6.066406 3.136719-8.441406 10.59375-5.304687 16.660156zm0 0" fill="#74c26c"/><path d="m298.863281 434.320312c.695313-1.578124 1.316407-3.207031 1.851563-4.890624 8.101562-25.464844-5.972656-52.675782-31.4375-60.777344-25.460938-8.101563-52.671875 5.972656-60.773438 31.4375-3.730468 11.71875-2.75 23.800781 1.863282 34.230468zm0 0" fill="#f94530"/><path d="m208.503906 418.644531c8.101563-25.464843 35.3125-39.539062 60.773438-31.4375 17.4375 5.546875 29.53125 20.050781 32.824218 36.820313 4.675782-23.800782-9.152343-47.84375-32.824218-55.375-25.460938-8.101563-52.671875 5.972656-60.773438 31.4375-2.554687 8.027344-2.902344 16.222656-1.382812 23.941406.351562-1.800781.8125-3.597656 1.382812-5.386719zm0 0" fill="#db3d2a"/><path d="m208.503906 400.089844c2.324219-7.308594 6.230469-13.675782 11.210938-18.851563-5.878906-8.648437-14.578125-15.46875-25.316406-18.886719-19.355469-6.15625-39.710938.507813-51.925782 15.238282 13.085938 8.660156 21.722656 23.503906 21.722656 40.371094 0 5.742187-1.003906 11.25-2.839843 16.359374h49.011719c-4.613282-10.425781-5.59375-22.511718-1.863282-34.230468zm0 0" fill="#f94530"/><path d="m151.644531 385.460938c11.972657-8.53125 27.667969-11.519532 42.753907-6.71875 7.253906 2.308593 13.578124 6.167968 18.730468 11.097656 1.886719-3.144532 4.101563-6.019532 6.585938-8.601563-5.878906-8.648437-14.578125-15.46875-25.316406-18.886719-19.355469-6.15625-39.710938.507813-51.925782 15.238282 3.378906 2.234375 6.460938 4.882812 9.171875 7.871094zm0 0" fill="#db3d2a"/><path d="m161.355469 434.320312h2.839843c0-2.785156-.238281-5.519531-.691406-8.175781-.484375 2.816407-1.207031 5.546875-2.148437 8.175781zm0 0" fill="#db3d2a"/><path d="m367.152344 386.464844c-12.808594-13.914063-33.183594-19.570313-52.078125-12.734375-8.171875 2.957031-15.046875 7.894531-20.308594 14.0625 7.929687 11.824219 10.601563 27.015625 5.949219 41.636719-.535156 1.683593-1.15625 3.3125-1.851563 4.890624h59.457031c-1.835937-5.109374-2.839843-10.617187-2.839843-16.359374 0-12.035157 4.402343-23.03125 11.671875-31.496094zm0 0" fill="#f94530"/><path d="m315.074219 390.324219c15.804687-5.722657 32.644531-2.699219 45.222656 6.585937 1.835937-3.78125 4.144531-7.289062 6.855469-10.445312-12.808594-13.914063-33.183594-19.570313-52.078125-12.734375-8.171875 2.957031-15.046875 7.894531-20.308594 14.0625 2.308594 3.4375 4.167969 7.160156 5.535156 11.074219 4.257813-3.609376 9.214844-6.535157 14.773438-8.542969zm0 0" fill="#db3d2a"/><path d="m245.078125 367.324219c7.796875-1.574219 16.085937-1.253907 24.199219 1.328125 8.207031 2.613281 15.21875 7.214844 20.699218 13.09375l9.125-4.71875c6.066407-3.136719 8.4375-10.597656 5.300782-16.664063-3.136719-6.0625-10.59375-8.4375-16.660156-5.300781l-1.300782.675781.507813-1.601562c2.070312-6.503907-1.527344-13.457031-8.035157-15.527344-6.503906-2.070313-13.457031 1.523437-15.527343 8.03125l-.445313 1.398437-.769531-1.492187c-3.136719-6.0625-10.597656-8.4375-16.660156-5.300781-6.066407 3.136718-8.441407 10.597656-5.300781 16.664062zm0 0" fill="#74c26c"/><path d="m337.875 345.757812c-6.183594-2.898437-13.542969-.234374-16.441406 5.949219l-.621094 1.324219-.570312-1.578125c-2.324219-6.417969-9.414063-9.742187-15.835938-7.417969-4.488281 1.625-7.457031 5.585938-8.042969 10.011719 3.34375.824219 6.332031 3.019531 8.039063 6.316406 3.136718 6.066407.765625 13.527344-5.300782 16.664063l-9.125 4.71875c1.550782 1.667968 2.980469 3.433594 4.277344 5.292968l.820313.382813c5.222656-5.996094 11.992187-10.792969 20-13.691406 8.097656-2.929688 16.460937-3.554688 24.390625-2.230469l4.359375-9.300781c2.898437-6.183594.234375-13.546875-5.949219-16.441407zm0 0" fill="#74c26c"/><path d="m163.449219 239.703125c-3.015625 3.015625-3.015625 7.910156 0 10.925781 3.019531 3.019532 7.910156 3.019532 10.929687 0 2.113282-2.113281 5.535156-2.113281 7.648438 0 3.015625 3.019532 7.90625 3.019532 10.925781 0 10.257813-10.257812-14.703125-25.726562-29.503906-10.925781zm0 0" fill="#63a65c"/><path d="m265.246094 252.550781c2.113281-2.113281 5.53125-2.113281 7.648437 0 3.015625 3.019531 7.90625 3.019531 10.925781 0 10.113282-10.109375-14.609374-25.816406-29.503906-10.925781-3.015625 3.019531-3.015625 7.910156 0 10.925781 3.019532 3.019531 7.910156 3.019531 10.929688 0zm0 0" fill="#63a65c"/><path d="m375.097656 222.433594c-3.019531 3.019531-3.019531 7.910156 0 10.929687 3.015625 3.015625 7.910156 3.015625 10.925782 0 2.109374-2.109375 5.539062-2.109375 7.648437 0 3.019531 3.015625 7.910156 3.015625 10.929687 0 10.09375-10.101562-14.632812-25.804687-29.503906-10.929687zm0 0" fill="#599452"/></svg>