<svg height="512pt" viewBox="0 0 512 512" width="512pt" xmlns="http://www.w3.org/2000/svg"><path d="m504.5 165.808594c4.140625 0 7.5-3.355469 7.5-7.5v-46.097656c0-4.140626-3.359375-7.5-7.5-7.5h-35.5v-26.378907c0-4.140625-3.359375-7.5-7.5-7.5s-7.5 3.359375-7.5 7.5v26.378907h-15v-89.710938h15v35.332031c0 4.144531 3.359375 7.5 7.5 7.5s7.5-3.355469 7.5-7.5v-42.832031c0-4.140625-3.359375-7.5-7.5-7.5h-30c-4.140625 0-7.5 3.359375-7.5 7.5v2.90625c-16.652344-5.644531-34.191406 3.871094-39.0625 20.039062-4.589844.125-8.980469 1.164063-12.976562 2.941407-6.667969-8.515625-17.042969-13.488281-28.066407-13.15625-4.699219-12.839844-17.699219-21.363281-31.890625-19.859375-14.195312 1.511718-25.101562 12.578125-26.996094 26.121094-.429687.082031-.859374.167968-1.285156.265624-9.257812-12.636718-26.25-17.574218-41.046875-11.34375-16.261719-18.617187-47.660156-11.066406-52.855469 13.984376-7.921874-5.964844-18.605468-7.820313-28.296874-4.460938-10.820313-14.117188-30.925782-17.757812-46.089844-7.898438-14.730469 9.578126-19.703125 28.597657-12.160156 43.992188-2.019532 4.207031-6.644532 12.449219-15.273438 21.40625v-74.9375c0-4.140625-3.359375-7.5-7.5-7.5h-30c-4.140625 0-7.5 3.359375-7.5 7.5v97.210938h-35.5c-4.140625 0-7.5 3.359374-7.5 7.5v46.097656c0 4.140625 3.359375 7.5 7.5 7.5h35.5v97.34375h-35.5c-4.140625 0-7.5 3.359375-7.5 7.5v46.097656c0 4.144531 3.359375 7.5 7.5 7.5h35.5v97.34375h-35.5c-4.140625 0-7.5 3.359375-7.5 7.5v75.40625c0 4.140625 3.359375 7.5 7.5 7.5h497c4.140625 0 7.5-3.359375 7.5-7.5v-75.40625c0-4.140625-3.359375-7.5-7.5-7.5h-35.5v-97.34375h35.5c4.140625 0 7.5-3.355469 7.5-7.5v-46.097656c0-4.140625-3.359375-7.5-7.5-7.5h-35.5v-97.34375zm-308.964844-61.9375c.808594.3125 1.601563.589844 2.414063.839844h-2.761719c.117188-.277344.234375-.558594.347656-.839844zm24.460938.242187c.300781.183594.621094.378907.960937.597657h-2.71875c.589844-.183594 1.175781-.382813 1.757813-.597657zm24.46875.402344c6.757812-.714844 12.777344-4.011719 16.957031-8.71875.445313 2.808594 1.03125 5.789063 1.800781 8.914063h-18.558594c-.0625-.066407-.132812-.132813-.199218-.195313zm34.277344.195313c-1.414063-4.953126-2.300782-9.523438-2.832032-13.566407 4.550782 2.273438 9.613282 3.550781 14.847656 3.628907 1.574219 2.058593 3.890626 5.386718 6.332032 9.9375zm34.695312-.730469c1.257812.335937 2.515625.578125 3.824219.730469h-3.496094c-.109375-.246094-.21875-.488282-.328125-.730469zm18.960938-2.019531c-.191407.894531-.375 1.8125-.550782 2.75h-8.53125c3.1875-.363282 6.273438-1.300782 9.082032-2.75zm20.234374-13.765626c2.132813-.492187 4.210938-1.1875 6.207032-2.074218 5.136718 6.535156 12.59375 11.191406 21.195312 12.675781.78125 1.4375 1.777344 3.421875 2.832032 5.914063h-35.714844c1.703125-7.738282 4.007812-13.390626 5.480468-16.515626zm37.070313-42.386718c4.523437.890625 8.78125-2.480469 8.945313-7.09375.023437-.101563-.050782-6.261719 5.085937-10.910156 5.941406-5.378907 14.601563-5.171876 20.265625-.484376v61.386719c-.707031.710938-1.261719 1.550781-1.636719 2.488281-4.332031 10.777344-18.773437 9.417969-21.496093-.894531-1.839844-6.96875-9.609376-5.410156-11.402344-5.800781-1.691406-.480469-15.683594 1.730469-21.5-12.171875-5.855469-13.910156 6.085937-29.601563 21.738281-26.519531zm-91.796875-7.296875c1.488281-1.617188 2.191406-3.808594 1.921875-5.992188.007813-.105469-1.015625-6.167969 3.332031-11.550781 8.613282-10.660156 25.976563-5.652344 27.492188 8.042969l.019531.242187c.421875 4.597656 4.863281 7.726563 9.332031 6.582032 7.460938-1.914063 15.160156.707031 19.886719 6.480468-7.339844 8.460938-9.960937 19.777344-7.542969 30.269532-8.289062 3.457031-19.183594-.539063-20.992187 8.300781-2.125 10.386719-16.519531 12.65625-21.394531 2.132812-5.066407-10.988281-19.449219 4.066407-32.433594-8.964843 9.960937-7.929688 14.664062-20.679688 12.347656-33.089844 2.164062-.15625 5.273438.546875 8.03125-2.453125zm-92.011719 4.070312c-6.257812-12.269531 5.5-26.011719 18.566407-21.820312 3.917968 1.257812 7.121093 3.960937 9.027343 7.625l.113281.238281c2.058594 4.117188 7.316407 5.425781 11.066407 2.75 15.335937-10.9375 35.460937 4.160156 29.820312 21.734375-4.921875 15.34375-21.613281 11.746094-21.742187 22.199219.007812 1.15625.25 1.507812.261718 3.015625.066407 9.199219-10.421874 14.574219-17.847656 9.191406-1.082031-.785156-1.292968-1.160156-1.953125-1.703125-2.292969-1.878906-5.507812-2.246094-8.183593-.867188l-8.058594 4.140626c-8.574219 4.40625-19.042969 1.816406-24.609375-5.863282-6.570313-8.964844-4.125-22.019531 5.527343-27.953125 3.710938-2.28125 6.796876-1.964843 8.472657-6.1875.8125-2.035156-.429688-6.398437-.460938-6.5zm-82.28125-12.96875c8.984375-5.84375 21.042969-3.289062 26.886719 5.695313 1.515625 2.332031 2.101562 5.4375 6.152344 6.578125 6.355468 1.792969 7.953125-5.394531 18.035156-3.265625 4.390625.929687 8.101562 3.652344 10.324219 7.601562-11.152344 10.023438-14.96875 26.90625-7.554688 41.324219 1.355469 2.640625 3.089844 5.171875 5.144531 7.4375-.757812 3.679687-2.558593 7.058594-5.195312 9.726563h-27.664062c-3.007813-3.046876-6.53125-9.820313-8.105469-11.574219-1.875-2.085938-4.796875-2.980469-7.570313-2.21875-10.554687 2.902343-18.636718-9.511719-11.695312-17.984375 2.054687-2.511719 2.277344-6.085938.484375-8.839844l-4.9375-7.597656c-5.84375-8.980469-3.285157-21.042969 5.695312-26.882813zm-18.253906 55.8125c1.359375 6.460938 5.125 12.179688 10.398437 15.980469-3.246093.863281-6.707031 1.945312-10.34375 3.304688h-17.414062v-2c7.265625-5.839844 12.957031-11.804688 17.359375-17.285157zm-47.359375-70.425781h15v89.710938h-15zm-43 104.710938h482v31.097656h-482zm351.296875 143.441406c3.675781-18.820313-11.988281-36.566406-31.785156-34.09375-5.511719-10.191406-16.589844-16.015625-28.191407-14.835938-3.109374-5.394531-7.882812-9.703125-13.96875-12.242187 2.601563-3.859375 6.136719-6.101563 9.757813-6.101563 6.714844 0 7.453125 6.285156 13.839844 4.921875 2.378906-.507812 4.367187-2.136719 5.332031-4.371093 5.578125-12.957032 18.128906-12.734376 23.492188.429687.945312 2.320313 2.988281 4.015625 5.445312 4.519531 6.605469 1.347656 7.34375-5.5 14.378906-5.5 3.25 0 5.789063 1.761719 7.347656 3.238282 2.894532 2.746093 7.433594 2.746093 10.328126 0 8.210937-7.792969 18-.644532 20.484374 11.058593 1.007813 4.75 6.203126 7.308594 10.585938 5.203125 3.660156-1.757812 7.457031-1.066406 10.652344 1.5625v46.214844h-57.699219zm-97.402344-60.488282c-3.113281-1.511718-6.511719-2.460937-10.058593-2.757812 5.160156-5.644531 11.855468-5.246094 16.710937.496094-2.308594.472656-4.570313 1.253906-6.652344 2.261718zm155.105469-2.351562c-2.925781-.824219-5.953125-1.085938-8.957031-.785156-7.328125-16.945313-24.332031-23.207032-37.933594-15.203125-7.082031-4.167969-15.441406-4.589844-22.898437-1.097657-5.34375-7.191406-12.984376-11.40625-21.273438-11.40625-8.128906 0-15.691406 4.109376-21.039062 11.113282-8.792969-3.855469-19.28125-2.398438-27.355469 5.183594-13.65625-12.828126-33.851563-8.15625-42.554688 10.472656-9.503906-7.144532-22.539062-7.726563-32.6875-1.253906-3.492187 2.226562-4.519531 6.863281-2.292969 10.355468 2.226563 3.492188 6.863282 4.519532 10.355469 2.289063 6.796875-4.332031 15.777344-1.875 19.511719 5.183593 2.171875 4.101563 7.507812 5.257813 11.183594 2.453126 4.867187-3.71875 11.542968-3.730469 16.414062-.175782 2.632813 1.925782 6.210938 1.925782 8.847656 0 7.769532-5.675781 18.804688-1.726562 21.332032 7.441406.558594 2.027344 1.9375 3.726563 3.808594 4.683594 4.25 2.175782 5.9375-.492187 10.796874-.492187 6.4375 0 11.921876 4.378906 13.375 10.59375 1.054688 4.523437 5.925782 6.992187 10.1875 5.21875 11.105469-4.628907 22.246094 6.375 18.175782 17.429687-.09375.253906-.210938.546875-.339844.835938h-244.792969c.332031-5.050782 3.445313-9.5625 8.121094-11.648438 2.917969-1.304687 4.6875-4.308594 4.414063-7.492187-.699219-8.175781 5.765624-14.9375 13.683593-14.9375 4.121094 0 6.007813 2.125 9.851563.066406 1.769531-.949219 3.085937-2.566406 3.65625-4.492187 3.261718-11.058594 18-13.429688 24.542968-3.824219 1.398438 2.050781 3.71875 3.277343 6.199219 3.277343 6.300781 0 5.441407-5.21875 12.03125-8.128906 3.789063-1.671875 5.503907-6.101562 3.832031-9.890625-1.671874-3.789062-6.097656-5.503906-9.886718-3.832031-2.140625.945312-4.144532 2.136719-5.972656 3.550781-13.789063-10.65625-33.691407-6.613281-42.421876 8.332031-15.71875-.984374-29.105468 10.800782-30.457031 26.128907-7.550781 5.125-12.316406 13.621093-12.605469 22.890625h-2.851562v-97.34375h336zm-366-34.503906h15v97.34375h-15zm0 158.441406h15v97.34375h-15zm35.851562 32.128906c0-2.488281 2.011719-4.5 4.5-4.5 2.578126 0 3.601563 1.890625 4.335938 2.46875 4.726562 4.722656 12.800781 1.347656 12.800781-5.304687v-1.421875c0-2.480469 2.019531-4.5 4.5-4.5 2.484375 0 4.503907 2.019531 4.503907 4.5.074218.308594-.871094 6.277344 4.628906 8.558594 5.347656 2.214843 8.964844-2.507813 9.179687-2.632813 2.816407-2.816406 7.683594-.816406 7.683594 3.183594 0 2.847656-2.246094 3.777343-4.574219 6.4375-13.78125-5.941407-29.3125-5.8125-42.753906-.117188-2.527344-2.878906-4.804688-3.804687-4.804688-6.671875zm80.796876-11.015625c-1.140626-2.207031-.277344-4.925781 1.929687-6.066406 2.203125-1.140625 4.925781-.273437 6.066406 1.929687l.75 1.445313c3.054688 5.910156 11.785157 5.191406 13.808594-1.171875l.429687-1.355469c.753907-2.363281 3.289063-3.675781 5.652344-2.921875 2.371094.753906 3.679688 3.28125 2.925782 5.652344l-.492188 1.550781c-2.027344 6.363281 4.679688 11.996094 10.589844 8.9375l1.265625-.652343c2.207031-1.144532 4.921875-.28125 6.066406 1.929687 1.140625 2.203125.273437 4.925781-1.929687 6.0625l-4.070313 2.105469c-11.078125-9.628906-25.976563-14.441406-40.738281-13.085938zm186.3125 76.230469c-7.757813-35.742188 34.042968-62.304688 63.039062-39.335938v39.335938zm-111.351563-65.71875c-1.550781-3.53125-3.4375-5.09375-2.566406-7.832031.753906-2.371094 3.28125-3.679688 5.652343-2.925781 2.457032.78125 2.859376 2.894531 3.382813 3.667968 3.054687 5.910156 11.78125 5.191406 13.808594-1.171875l.429687-1.355469c.753906-2.363281 3.28125-3.679687 5.65625-2.921874 2.363282.75 3.675782 3.289062 2.921875 5.65625-.019531.316406-2.730469 5.71875 1.820313 9.554687 4.425781 3.734375 9.300781.332031 9.542968.277344 2.136719-1.105469 4.738282-.3125 5.929688 1.6875 1.402344 2.367187.316406 5.21875-1.792969 6.308593l-4.089843 2.113282c-11.148438-9.679688-25.917969-14.441406-40.65625-13.0625-.011719 0-.027344 0-.039063.003906zm84.851563.027344-1.945313 4.148437c-6.878906-.402343-13.894531.507813-20.679687 2.808594.019531-5.441406-2.304688-10.699219-6.261719-14.363281 1.121093-.394532 2.332031-.335938 3.410156.167968 2.335937 1.097657 2.457031 3.238282 2.875 4.074219 2.269531 6.28125 11.019531 6.65625 13.84375.632813.429687-.683594.804687-2.765625 3.148437-3.609375 1.128907-.410157 2.351563-.355469 3.441407.15625 2.246093 1.054687 3.21875 3.738281 2.167969 5.984375zm-117.5625 65.691406c-9.519532-31.394531 20.960937-59.34375 50.996093-48.664062 19.65625 7.007812 30.691407 28.34375 24.511719 48.664062zm86.101562-36.550781c14.265625-12.78125 35.792969-13.511719 50.875-1.511719-7.519531 11.5625-10.171875 25.246094-8.164062 38.0625h-37.816407c2.699219-12.421875.972657-25.277344-4.894531-36.550781zm75.285156-21.980469c-2.542968-2.890625-4.820312-3.816406-4.820312-6.683594 0-3.972656 4.839844-6.027344 7.683594-3.183594.277343.164063 3.828124 5.058594 9.324218 2.777344 5.363282-2.222656 4.570313-8.113281 4.632813-8.351562 0-2.480469 2.019531-4.5 4.5-4.5s4.5 2.019531 4.5 4.5c.078125.308594-.867188 6.277344 4.628906 8.558594 5.351563 2.214843 8.96875-2.507813 9.179687-2.632813 1.675782-1.675781 4.324219-1.746094 6.085938-.257813v6.90625l-2.96875 2.96875c-13.253906-5.703124-28.726562-6.035156-42.746094-.101562zm45.714844-25.621094c-2.453125-.363281-5.042969-.269531-7.558594.34375-7.472656-12.738281-25.808594-12.921875-33.507812-.273437-19.296875-5.046875-32.699219 18.714843-18.757813 32.65625l.898438.898437c-.457031.371094-.90625.75-1.347657 1.136719-4.867187-3.96875-10.3125-7.015625-16.085937-9.078125l.402344-.855469c4.5625-9.738281.351562-21.371093-9.386719-25.933593-6.445312-3.019532-13.621094-2.203126-19.089844 1.421874-8.269531-6.871093-20.253906-5.683593-27.101562 2.054688-5.285156-12.0625-20.734375-15.546875-30.691406-6.882812-10.519532-6.644532-24.394532-1.882813-28.699219 9.625-3.359375-3.191407-7.71875-5.007813-12.113281-5.3125-1.222657-5.390626-4.734376-10.257813-9.945313-12.988282h212.984375zm-241.1875-13.191406h10.046875c-1.347656.710938-2.613281 1.574219-3.769531 2.578125-1.929688-1.21875-4.058594-2.089844-6.277344-2.578125zm28.292969 53.121094c-9.242188 12.257812-13.101563 28.421875-9.695313 44.226562h-27.667968c2.789062-18.070312-3.585938-36.03125-16.6875-48.226562 16.269531-13.296875 40.144531-11.304688 54.050781 4zm-123.105469 12.644531c20.402344-28.0625 64.777344-17.953125 70.792969 16.375.855469 4.878906.808593 10.0625-.300781 15.203125h-70.492188zm409 106.984375h-482v-60.40625h482zm-43-75.40625h-15v-97.34375h15zm43-112.34375h-355.839844c-4.140625 0-7.5 3.359375-7.5 7.5 0 4.144531 3.359375 7.5 7.5 7.5h33.269532c-12.488282 2.761719-18.972657 16.660156-13.105469 28.003906l.550781 1.066406c-.371094.148438-.742188.296876-1.109375.457032-1.6875-11.175782-12.671875-18.742188-23.941406-15.992188-7.472657-12.742187-25.804688-12.921875-33.503907-.273437-5.027343-1.316407-10.628906-.617188-15.320312 2.332031v-15.589844h25.160156c4.144532 0 7.5-3.359375 7.5-7.5 0-4.144531-3.355468-7.5-7.5-7.5h-98.160156v-31.101562h482zm-43-46.097656h-15v-97.34375h15zm0 0"/><path d="m166.164062 240.179688c-2.929687 2.929687-2.929687 7.679687 0 10.605468 2.929688 2.929688 7.675782 2.929688 10.605469 0 2.050781-2.050781 5.371094-2.050781 7.421875 0 2.929688 2.929688 7.679688 2.929688 10.609375 0 9.957031-9.957031-14.273437-24.972656-28.636719-10.605468zm0 0"/><path d="m264.972656 252.652344c2.050782-2.050782 5.375-2.050782 7.425782 0 2.929687 2.929687 7.675781 2.929687 10.605468 0 9.816406-9.816406-14.183594-25.0625-28.636718-10.605469-2.929688 2.929687-2.929688 7.679687 0 10.605469 2.929687 2.929687 7.679687 2.929687 10.605468 0zm0 0"/><path d="m371.609375 223.417969c-2.929687 2.929687-2.929687 7.679687 0 10.605469 2.925781 2.929687 7.675781 2.929687 10.605469 0 2.046875-2.046876 5.375-2.046876 7.425781 0 2.929687 2.929687 7.675781 2.929687 10.605469 0 9.800781-9.800782-14.199219-25.042969-28.636719-10.605469zm0 0"/></svg>